<?xml version="1.0" encoding="UTF-8" standalone="no"?>
<!-- Created with Inkscape (http://www.inkscape.org/) -->

<svg
   width="281.62784mm"
   height="114.05866mm"
   viewBox="0 0 281.62784 114.05866"
   version="1.1"
   id="svg8"
   inkscape:version="1.1.1 (3bf5ae0d25, 2021-09-20)"
   sodipodi:docname="Logo-Long-Inverted-Outline.svg"
   xmlns:inkscape="http://www.inkscape.org/namespaces/inkscape"
   xmlns:sodipodi="http://sodipodi.sourceforge.net/DTD/sodipodi-0.dtd"
   xmlns="http://www.w3.org/2000/svg"
   xmlns:svg="http://www.w3.org/2000/svg"
   xmlns:rdf="http://www.w3.org/1999/02/22-rdf-syntax-ns#"
   xmlns:cc="http://creativecommons.org/ns#"
   xmlns:dc="http://purl.org/dc/elements/1.1/">
  <defs
     id="defs2" />
  <sodipodi:namedview
     id="base"
     pagecolor="#ffffff"
     bordercolor="#666666"
     borderopacity="1.0"
     inkscape:pageopacity="0.0"
     inkscape:pageshadow="2"
     inkscape:zoom="0.70710678"
     inkscape:cx="456.08387"
     inkscape:cy="217.08178"
     inkscape:document-units="mm"
     inkscape:current-layer="g863"
     showgrid="false"
     inkscape:window-width="1920"
     inkscape:window-height="1009"
     inkscape:window-x="1072"
     inkscape:window-y="-8"
     inkscape:window-maximized="1"
     showguides="true"
     inkscape:snap-page="false"
     scale-x="1"
     fit-margin-top="0"
     fit-margin-left="0"
     fit-margin-right="0"
     fit-margin-bottom="0"
     inkscape:showpageshadow="2"
     inkscape:pagecheckerboard="true"
     inkscape:deskcolor="#d1d1d1" />
  <metadata
     id="metadata5">
    <rdf:RDF>
      <cc:Work
         rdf:about="">
        <dc:format>image/svg+xml</dc:format>
        <dc:type
           rdf:resource="http://purl.org/dc/dcmitype/StillImage" />
      </cc:Work>
    </rdf:RDF>
  </metadata>
  <g
     inkscape:groupmode="layer"
     id="layer3"
     inkscape:label="refined"
     style="display:inline;opacity:1"
     transform="translate(-5.3063871,-126.36459)">
    <g
       inkscape:groupmode="layer"
       id="layer29"
       inkscape:label="background"
       style="display:inline" />
    <g
       inkscape:groupmode="layer"
       id="layer8"
       inkscape:label="back wing"
       style="display:inline;opacity:1">
      <path
         style="fill:#009a94;fill-opacity:1;stroke:none;stroke-width:0.264583px;stroke-linecap:butt;stroke-linejoin:miter;stroke-opacity:1"
         d="m 83.185157,165.57962 c 0,0 -4.87665,-1.35438 -2.75055,-7.02402 0,0 1.43784,-3.66957 9.17615,-9.32344 0,0 -5.9161,-6.97678 -16.45218,-13.73311 0,0 -13.067,-7.30759 -21.06196,-9.13446 0,0 4.78217,5.27591 1.51191,7.08707 0,0 -3.64823,2.28363 -8.42018,2.37812 0,0 34.73962,22.46057 26.65473,35.22269 0,0 8.50546,-1.68629 11.34208,-5.47285 z"
         id="path845"
         inkscape:connector-curvature="0"
         sodipodi:nodetypes="ccccccccc" />
    </g>
    <g
       inkscape:groupmode="layer"
       id="layer7"
       inkscape:label="wing"
       style="display:inline;opacity:1">
      <path
         style="fill:#00c8bd;fill-opacity:1;stroke:none;stroke-width:0.264583px;stroke-linecap:butt;stroke-linejoin:miter;stroke-opacity:1"
         d="m 77.043047,153.48439 c 0,0 -6.18881,-12.80562 -25.96675,-17.28239 0,0 -11.42577,-3.14041 -31.00327,-2.87314 0,0 -7.75081,0.26727 -14.7666399,3.27405 0,0 9.5265199,0.49442 14.5661899,2.43883 0,0 5.65823,1.83343 7.48355,8.61945 0,0 0.7171,3.43704 -2.28731,6.89603 0,0 -2.70398,3.14001 -3.96624,4.59682 0,0 9.39194,-2.44107 15.81754,-0.3622 0,0 2.66625,0.44092 5.01839,3.29151 0,0 2.39939,2.66161 1.17097,6.1579 0,0 -1.11352,3.22847 -3.1081,6.31531 0,0 2.91911,-3.43325 9.81717,-4.80341 0,0 5.1231,-0.64579 9.27063,1.21263 0,0 7.78555,2.80336 10.71486,7.7643 l 6.52009,-3.1183 c 0,0 -3.02381,-5.10268 -2.97656,-11.00856 0,0 0.3984,-6.12643 3.69548,-11.11883 z"
         id="path878"
         inkscape:connector-curvature="0"
         sodipodi:nodetypes="cccccccccccccccccc" />
    </g>
    <g
       inkscape:groupmode="layer"
       id="layer16"
       inkscape:label="D"
       style="display:inline;opacity:1">
      <path
         style="fill:#ffffff;fill-opacity:1;stroke:none;stroke-width:0.264583px;stroke-linecap:butt;stroke-linejoin:miter;stroke-opacity:1"
         d="m 70.259697,173.3914 0.5669,65.20119 25.05893,-0.0506 c 0,0 21.695833,-0.66145 27.913543,-22.75417 0,0 4.35622,-13.25462 -2.38125,-26.32604 0,0 -7.54276,-13.30517 -24.132893,-15.50344 z m 17.74104,13.52475 c 12.564713,-0.0428 17.277503,7.0435 17.277503,7.0435 4.8948,5.02709 4.36562,14.2875 4.36562,14.2875 -0.92603,7.67292 -4.36562,11.50937 -4.36562,11.50937 -6.085413,8.33437 -18.709453,5.55109 -18.709453,5.55109 l 0.1912,-38.36459 c 0.42176,-0.0167 0.83544,-0.0255 1.24075,-0.0269 z"
         id="path861"
         inkscape:connector-curvature="0" />
      <path
         style="display:inline;opacity:1;fill:#ffffff;fill-opacity:1;stroke:none;stroke-width:0.264583px;stroke-linecap:butt;stroke-linejoin:miter;stroke-opacity:1"
         d="m 70.965177,238.59234 -6.550522,2.5e-4 c 0,0 5.764332,-5.33884 6.644252,-13.35867 l -0.06979,9.94573 z"
         id="path901-7"
         inkscape:connector-curvature="0"
         sodipodi:nodetypes="ccccc" />
    </g>
    <g
       inkscape:groupmode="layer"
       id="layer15"
       inkscape:label="dragon body"
       style="display:inline;opacity:1">
      <path
         id="path858"
         style="fill:#00c8bd;fill-opacity:1;stroke:#00c8bd;stroke-width:0.2;stroke-linecap:butt;stroke-linejoin:miter;stroke-miterlimit:4;stroke-dasharray:none;stroke-opacity:1"
         d="m 20.828817,214.58911 c 0,0 0.45344,11.43178 8.77934,18.21074 0,0 7.32365,6.31124 16.07673,7.11305 0,0 8.41899,1.5368 18.30796,-1.33635 0,0 5.41221,-1.73725 10.02261,-4.81085 0,0 6.1472,-4.14268 8.88672,-7.55036 0,0 2.17399,-2.25541 3.67495,-6.24744 0,0 1.24792,-3.38098 1.40317,-5.74629 0,0 -0.22203,-1.18963 -1.27931,-2.26542 0,0 -0.6584,4.70426 -4.66744,9.84919 0,0 -4.87767,6.48129 -11.8935,9.68852 0,0 -5.87993,3.47451 -14.83346,4.47677 0,0 -7.48354,1.1359 -15.56845,-3.40768 0,0 -3.96155,-1.62263 -7.52661,-8.09441 0,0 -1.62737,-4.26681 -0.89238,-7.34041 0,0 0.79051,-5.96968 2.76727,-8.5975 z m 13.2576,-6.05844 c 0,0 5.10268,-8.17373 13.22917,-12.23698 0,0 5.5279,-2.92931 11.05581,-3.44903 0,0 6.68227,-0.97651 12.2472,1.35438 0,0 21.80546,-8.9542 26.66622,-20.24062 0,0 2.5617,-4.0159 3.477373,-11.22589 0,0 0.32052,-3.81123 -0.0102,-6.36257 l -0.37799,-1.84263 c 0,0 -0.410463,-2.07503 0.18899,-3.77976 0,0 0.78037,-3.42095 3.5203,-6.11626 0,0 0.83523,-1.30295 4.40995,-0.86863 0,0 4.74403,3.30746 9.85556,4.57699 l 6.24743,1.9043 v 0 c 0,0 0.66818,-0.90204 0.46772,-3.14042 0,0 -3.90881,-3.54131 -4.54358,-4.74403 0,0 -1.26954,-3.64155 -4.10928,-6.41447 l -1.50338,-1.73725 c 0,0 -9.68431,-7.9084 -23.216943,-0.29595 0,0 11.403253,-4.66593 16.725443,1.32292 0,0 -6.23722,0.30937 -11.682833,4.68591 0,0 -3.0736,2.40543 -4.47677,5.07812 0,0 -1.50339,2.13816 -2.47224,7.85105 0,0 -0.13364,2.17156 -0.80181,4.10927 0,0 -1.12249,2.89496 -3.15042,5.48993 0,0 -3.7117,3.60418 -10.59356,6.72485 0,0 -7.45661,2.73634 -19.54182,4.67271 0,0 -10.74686,2.38932 -18.36404,9.07106 0,0 -8.51488,6.11219 -12.96257,15.70208 0,0 -3.6257,5.31508 -3.54132,15.96936 z"
         inkscape:connector-curvature="0" />
    </g>
    <g
       inkscape:groupmode="layer"
       id="layer1"
       inkscape:label="D corner">
      <path
         style="display:inline;opacity:1;fill:#ffffff;fill-opacity:1;stroke:none;stroke-width:0.264583px;stroke-linecap:butt;stroke-linejoin:miter;stroke-opacity:1"
         d="m 70.259695,173.3914 c -2.207332,-0.004 -6.211772,0 -6.211772,0 0,0 5.756053,5.34199 6.635983,13.36182 0,0 4.847519,-12.76009 0.42428,-13.26497 z"
         id="path901"
         inkscape:connector-curvature="0"
         sodipodi:nodetypes="cccsc" />
      <path
         id="path2730"
         style="fill:#ffffff;fill-opacity:1;stroke:none;stroke-width:0.264583px;stroke-linecap:butt;stroke-linejoin:miter;stroke-opacity:1"
         d="m 85.099703,187.43039 c 0,0 16.091767,-9.91903 12.185224,-13.47205 m 0,0 -27.025232,-0.56694 0.192069,20.92821 c 0,0 7.772432,-1.08948 14.647939,-6.88922"
         inkscape:connector-curvature="0" />
    </g>
    <g
       inkscape:groupmode="layer"
       id="layer18"
       inkscape:label="tail end">
      <path
         style="fill:#00c8bd;fill-opacity:1;stroke:none;stroke-width:0.264583px;stroke-linecap:butt;stroke-linejoin:miter;stroke-opacity:1"
         d="m 70.140117,213.26348 c 0,0 10.4342,0.64736 17.87366,-6.22738 0,0 4.48559,-3.39642 5.57935,-8.88182 0,0 0.69919,-3.41719 -3.14051,-3.7333 0,0 2.80408,1.03394 1.73725,3.80859 0,0 -1.46371,4.69288 -9.03741,8.16554 0,0 -6.76951,3.00936 -12.67824,2.99296 0,0 -1.26323,0.21668 -1.40317,1.73725 0,0 -0.33467,1.43283 1.06907,2.13816 z"
         id="path869"
         inkscape:connector-curvature="0"
         sodipodi:nodetypes="ccccccccc" />
    </g>
  </g>
  <g
     inkscape:groupmode="layer"
     id="layer14"
     inkscape:label="letters"
     transform="translate(-5.3063871,-126.36459)"
     style="display:inline">
    <g
       inkscape:groupmode="layer"
       id="layer26"
       inkscape:label="o">
      <path
         style="fill:#ffffff;fill-opacity:1;stroke:none;stroke-width:0.264583px;stroke-linecap:butt;stroke-linejoin:miter;stroke-opacity:1"
         d="m 266.08445,195.5301 c -2.71195,0.0372 -10.40712,0.71572 -15.35152,6.89622 0,0 -4.03489,4.49792 -4.82864,12.7 0,0 -0.99219,8.86354 1.98437,14.22135 0,0 2.28203,5.68854 9.06198,8.20208 0,0 7.90443,3.00964 17.39635,0 0,0 6.41615,-1.78593 10.31875,-9.72343 0,0 2.51354,-4.1672 2.24896,-12.50157 0,0 -0.0661,-8.92969 -4.82864,-13.95677 0,0 -4.49792,-5.68854 -15.01511,-5.82083 0,0 -0.36068,-0.0256 -0.9865,-0.017 z m 0.36484,9.05422 c 0.2255,-0.005 0.35552,0.01 0.35552,0.01 3.78962,0.0783 5.41001,3.44682 5.41001,3.44682 1.71612,2.97662 1.73995,8.2641 1.73995,8.2641 0.0953,4.93492 -0.81028,7.40213 -0.81028,7.40213 -1.40624,4.69992 -3.71814,5.75779 -3.71814,5.75779 -3.50358,1.87997 -6.26835,0 -6.26835,0 -1.78755,-0.74416 -3.26543,-4.85656 -3.26543,-4.85656 -1.02487,-3.44661 -0.71467,-8.42067 -0.71467,-8.42067 0.28599,-4.85659 1.73993,-7.51995 1.73993,-7.51995 1.7816,-3.65958 4.55427,-4.06147 5.53146,-4.08348 z"
         id="path1014"
         inkscape:connector-curvature="0"
         sodipodi:nodetypes="cccccccccccccccccccccccc" />
    </g>
    <g
       inkscape:groupmode="layer"
       id="layer31"
       inkscape:label="c"
       style="display:inline">
      <path
         style="fill:#ffffff;fill-opacity:1;stroke:none;stroke-width:0.264583px;stroke-linecap:butt;stroke-linejoin:miter;stroke-opacity:1"
         d="m 242.51948,199.83842 c 0,0 -8.25237,-7.00003 -20.41314,-3.72598 0,0 -9.35442,1.73057 -13.89133,11.22532 0,0 -4.72399,8.27868 -0.28063,19.73785 0,0 5.10952,12.69326 21.93615,12.114 0,0 8.38219,-0.38748 14.40582,-6.03362 l -4.06918,-7.76418 c 0,0 -7.15614,4.724 -11.36563,4.06919 0,0 -6.52736,-0.0855 -9.19005,-7.21095 0,0 -2.12882,-6.72716 0.77106,-12.1995 0,0 2.75956,-3.97564 6.78196,-4.5369 0,0 6.65505,-2.34621 11.61599,2.81317 z"
         id="path1054"
         inkscape:connector-curvature="0"
         sodipodi:nodetypes="ccccccccccccc" />
    </g>
    <g
       inkscape:groupmode="layer"
       id="layer23"
       inkscape:label="a">
      <path
         style="fill:#ffffff;fill-opacity:1;stroke:none;stroke-width:0.264583px;stroke-linecap:butt;stroke-linejoin:miter;stroke-opacity:1"
         d="m 183.43419,195.40762 c -8.73784,0.063 -17.69866,3.04995 -17.69866,3.04995 0,0 0.39687,11.44323 0.59531,12.17083 4.29948,-5.4901 8.86354,-6.61458 8.86354,-6.61458 5.75469,-1.25677 8.53282,0.66145 8.53282,0.66145 4.7625,3.37345 3.175,9.92188 3.175,9.92188 l -9.12813,-0.0661 c -7.34219,0.39687 -11.04635,3.43959 -11.04635,3.43959 -2.84427,2.11667 -3.37344,6.87916 -3.37344,6.87916 -0.52917,5.35781 1.65365,9.06198 1.65365,9.06198 3.96875,5.82083 10.31875,5.29167 10.31875,5.29167 8.99584,-0.79375 13.16302,-6.74688 13.16302,-6.74688 l 1.19062,5.68855 14.94896,-0.19844 c -3.93563,-3.30728 -4.49791,-8.66511 -4.49791,-8.66511 l -0.39688,-23.15104 c -1.0542,-8.55761 -8.59044,-10.77845 -16.3003,-10.72286 z m 0.16072,25.16849 c 0.94724,-0.0111 2.03251,0.0208 3.26905,0.11731 l -0.047,6.31434 c 0,0 -2.7595,3.13366 -5.42551,3.13366 0,0 -3.46112,0.23416 -4.95784,-2.80603 0,0 -1.02889,-4.58382 1.54358,-5.84667 0,0 1.51304,-0.86436 5.61775,-0.91261 z"
         id="path955"
         inkscape:connector-curvature="0"
         sodipodi:nodetypes="cccccccccccccccccccccccccc" />
    </g>
    <g
       inkscape:groupmode="layer"
       id="layer28"
       inkscape:label="r"
       style="display:inline">
      <path
         style="fill:#ffffff;fill-opacity:1;stroke:none;stroke-width:0.264583px;stroke-linecap:butt;stroke-linejoin:miter;stroke-opacity:1"
         d="m 142.78293,196.20865 1.65365,5.68854 c 0,0 6.291,-8.91479 18.05781,-5.55625 l -1.00354,15.55368 c 0,0 -1.33977,-5.31495 -7.99226,-5.03649 0,0 -4.29228,0.57713 -7.67291,5.35781 l 0.31934,18.26893 c 0,0 0.5146,4.6654 5.76604,7.66019 l -23.68021,-0.0661 c 0,0 4.39489,-2.83035 4.74312,-7.58602 l -0.2452,-25.3546 c 0,0 -1.11734,-6.96348 -4.56407,-8.20208 0,0 13.43475,-0.15047 14.61823,-0.72761 z"
         id="path1036"
         inkscape:connector-curvature="0"
         sodipodi:nodetypes="ccccccccccccc" />
    </g>
  </g>
  <g
     inkscape:groupmode="layer"
     id="g863"
     inkscape:label="outline"
     transform="translate(-5.3063871,-126.36459)"
     style="display:inline">
    <path
       id="path846"
       style="fill:none;fill-opacity:1;stroke:#000000;stroke-width:2.1354331;stroke-linecap:butt;stroke-linejoin:miter;stroke-opacity:1;stroke-miterlimit:4;stroke-dasharray:none"
       d="m 176.8457,0 c 0,0 18.07293,19.939827 5.71289,26.785156 0,0 -8.60585,5.383278 -21.10937,7.822266 -17.41826,-3.428476 -53.99101,-8.990245 -105.638673,-8.285156 0,0 -29.294025,1.008841 -55.810547,12.373046 0,0 36.005165,1.869801 55.052734,9.21875 0,0 21.386309,6.928225 28.285157,32.576172 0,0 2.710719,12.991101 -8.644532,26.064456 0,0 -10.221441,11.86699 -14.992187,17.37304 0,0 35.497461,-9.22433 59.783208,-1.36718 0,0 10.07681,1.66557 18.96679,12.43945 0,0 9.06863,10.05911 4.42578,23.27344 0,0 -4.20752,12.20234 -11.74609,23.86914 0,0 11.03211,-12.97574 37.10352,-18.1543 0,0 19.36335,-2.43996 35.03906,4.58399 0,0 5.79191,2.15554 13.14258,6.07226 -7.85925,1.65502 -16.51255,3.29995 -25.96485,4.81445 0,0 -40.61691,9.03134 -69.40625,34.28516 0,0 -32.182019,23.10045 -48.992186,59.3457 0,0 -13.703682,20.08928 -13.384765,60.35743 0,0 1.713673,43.20685 33.18164,68.82812 0,0 27.679211,23.85235 60.761721,26.88281 0,0 31.81968,5.80837 69.19531,-5.05078 0,0 1.30776,-0.45227 2.48633,-0.86523 -0.19739,0.19201 -0.89258,0.92578 -0.89258,0.92578 h 24.75977 v -0.002 l 94.18554,-0.1875 c 0,0 82,-2.49998 105.5,-86 0,0 16.46446,-50.09621 -9,-99.5 0,0 -28.50809,-50.28729 -91.21093,-58.59571 0,0 9.68176,-15.17933 13.14257,-42.42969 0,0 1.21285,-14.40401 -0.0371,-24.04687 l -1.42968,-6.96484 c 0,0 -1.55081,-7.842086 0.71484,-14.28516 0,0 2.94905,-12.930189 13.30469,-23.117188 0,0 3.15721,-4.924727 16.66797,-3.283203 0,0 17.92888,12.500605 37.24804,17.298829 l 23.61329,7.197265 c 0,0 2.52522,-3.409122 1.76757,-11.869141 0,0 -14.77274,-13.383974 -17.17187,-17.929687 0,0 -4.79838,-13.763813 -15.53125,-24.244141 l -5.68164,-6.564453 c 0,0 -36.60304,-29.89060495 -87.75,-1.11914 0,0 43.09948,-17.635024 63.21484,5 0,0 -23.5744,1.169684 -44.15625,17.710937 0,0 -11.6166,9.089902 -16.91992,19.191406 0,0 -5.68196,8.081806 -9.34375,29.673826 0,0 -0.50588,8.20762 -3.03125,15.53125 0,0 -4.24163,10.94224 -11.90625,20.75 0,0 -4.55574,4.41547 -13.26367,10.39063 -4.88547,-2.64523 -12.97223,-9.54596 -7.13672,-25.10742 0,0 5.43448,-13.86933 34.68164,-35.238286 0,0 -22.36024,-26.368563 -62.18164,-51.904296 0,0 -49.38635,-27.6187327 -79.60352,-34.523438 z m 135.69922,228.85547 c 47.48868,-0.16177 65.30078,26.62109 65.30078,26.62109 18.50003,19.00003 16.5,54 16.5,54 -3.49995,29.00002 -16.5,43.5 -16.5,43.5 -22.99998,31.49998 -70.71289,20.98047 -70.71289,20.98047 l 0.10157,-20.38281 c 0.21219,-0.57891 4.66142,-12.78648 5.23437,-21.51563 0,0 -0.83992,-4.49652 -4.83594,-8.5625 0,0 -0.0975,0.55722 -0.25586,1.35547 l 0.0781,-15.60351 c 1.74608,-1.35356 3.46425,-2.79853 5.14062,-4.34766 0,0 16.95204,-12.83614 21.08594,-33.56836 0,0 2.64311,-12.91658 -11.86914,-14.11133 0,0 10.59852,3.90767 6.56641,14.39453 0,0 -3.7251,11.92921 -20.85352,23.46094 l 0.33008,-66.11914 c 1.59405,-0.0631 3.15757,-0.0963 4.68945,-0.10156 z M 212.59375,250.5 c 9.08238,-0.0719 21.9244,0.91004 33.58008,5.62695 l 0.50195,57.66016 c -0.12407,3.6e-4 -0.24917,0.002 -0.37305,0.002 0,0 -4.77382,0.81937 -5.30273,6.56641 0,0 -1.26446,5.41622 4.04102,8.08203 0,0 0.62233,0.0367 1.76171,0.0527 l 0.45899,52.81055 c -1.47442,6.7576 -3.80234,12.85881 -6.42578,18.24414 -7.93518,3.90233 -26.6581,11.89381 -51.85938,14.71485 0,0 -28.2827,4.29172 -58.83984,-12.88086 0,0 -14.97302,-6.13153 -28.44727,-30.5918 0,0 -6.150959,-16.12739 -3.373044,-27.74414 0,0 2.987764,-22.56222 10.458984,-32.49414 0,0 19.28571,-30.89284 50,-46.25 0,0 20.89227,-11.07086 41.78516,-13.03516 0,0 4.83352,-0.70666 12.0332,-0.76367 z m 630.99414,9.81836 c -7.47099,0.0202 -15.56768,0.97473 -24.18555,3.29492 0,0 -35.35653,6.54207 -52.5039,42.42774 0,0 -17.85435,31.28937 -1.06055,74.5996 0,0 19.31149,47.97449 82.9082,45.78516 0,0 31.68079,-1.46494 54.44727,-22.80469 l -15.37891,-29.3457 c 0,0 -27.04714,17.85573 -42.95703,15.38086 0,0 -24.67066,-0.32307 -34.73437,-27.25391 0,0 -8.04612,-25.42651 2.91406,-46.10937 0,0 10.43004,-15.02519 25.63281,-17.14649 0,0 25.15234,-8.8672 43.90235,10.63282 l 13.98046,-32.08203 c 0,0 -20.59053,-17.46662 -52.96484,-17.37891 z m -170.34961,0.63086 c -33.02491,0.23811 -66.89258,11.52734 -66.89258,11.52734 0,0 1.49999,43.25002 2.25,46 16.25001,-20.74998 33.5,-25 33.5,-25 21.75001,-4.74999 32.25,2.5 32.25,2.5 18,12.75005 12,37.5 12,37.5 l -34.5,-0.24804 c -27.75001,1.49998 -41.75,13 -41.75,13 -10.74999,8.00001 -12.75,26 -12.75,26 -2.00001,20.24999 6.25,34.25 6.25,34.25 15,21.99998 39,20 39,20 34.00003,-3 49.75,-25.5 49.75,-25.5 l 4.5,21.5 56.5,-0.75 c -14.87482,-12.49996 -17,-32.75 -17,-32.75 l -1.5,-87.5 c -3.98437,-32.34373 -32.46779,-40.73745 -61.60742,-40.52735 z m 313.96094,0.46094 c -0.46042,-0.005 -0.99071,-0.004 -1.58203,0.004 v -0.002 c -10.24989,0.1406 -39.33399,2.70508 -58.02149,26.06445 0,0 -15.25,17.00002 -18.25,48 0,0 -3.74999,33.50001 7.5,53.75 0,0 8.625,21.50001 34.25,31 0,0 29.87503,11.37502 65.75,0 0,0 24.25,-6.75 39,-36.75 0,0 9.5,-15.75002 8.5,-47.25 0,0 -0.2498,-33.75001 -18.25,-52.75 0,0 -17,-21.5 -56.75,-22 0,0 -0.76522,-0.0529 -2.14648,-0.0664 z m -412.42188,0.20898 c -32.00366,-0.12887 -48.93164,23.85938 -48.93164,23.85938 l -6.25,-21.5 c -4.47299,2.18131 -55.25,2.75 -55.25,2.75 13.02701,4.68132 17.25,31 17.25,31 l 0.92774,95.82812 c -1.31615,17.97419 -17.92774,28.67188 -17.92774,28.67188 l 89.5,0.24804 c -19.84796,-11.31889 -21.79297,-28.95117 -21.79297,-28.95117 l -1.20703,-69.04687 c 12.77719,-18.06872 29,-20.25 29,-20.25 25.14327,-1.05245 30.20703,19.03515 30.20703,19.03515 l 3.79297,-58.78515 c -6.9489,-1.98339 -13.39175,-2.83551 -19.31836,-2.85938 z m 412.21875,34.01367 c 0.85229,-0.0189 1.34375,0.0391 1.34375,0.0391 14.32296,0.29592 20.44726,13.02734 20.44726,13.02734 6.4861,11.25022 6.5762,31.23437 6.5762,31.23437 0.3602,18.65167 -3.0625,27.97657 -3.0625,27.97657 -5.3149,17.76347 -14.05275,21.7617 -14.05275,21.76172 -13.24188,7.10538 -23.69141,0 -23.69141,0 -6.75609,-2.81258 -12.3418,-18.35547 -12.3418,-18.35547 -3.87352,-13.02656 -2.70117,-31.82618 -2.70117,-31.82618 1.08091,-18.35561 6.57617,-28.42187 6.57617,-28.42187 6.73361,-13.83148 17.21294,-15.35041 20.90625,-15.43359 z M 673.8457,356.07422 c 3.58012,-0.042 7.68193,0.0786 12.35547,0.44336 l -0.17773,23.86523 c 0,0 -10.4296,11.84375 -20.50586,11.84375 0,0 -13.08139,0.88502 -18.73828,-10.60547 0,0 -3.88874,-17.32468 5.83398,-22.09765 0,0 5.71856,-3.26686 21.23242,-3.44922 z"
       transform="matrix(0.26458333,0,0,0.26458333,5.3063871,126.36459)" />
  </g>
</svg>
