<?xml version="1.0" encoding="UTF-8" standalone="no"?>
<!-- Created with Inkscape (http://www.inkscape.org/) -->

<svg
   width="119.89506mm"
   height="114.05866mm"
   viewBox="0 0 119.89506 114.05866"
   version="1.1"
   id="svg8"
   inkscape:version="1.1.1 (3bf5ae0d25, 2021-09-20)"
   sodipodi:docname="Logo-Short-Inverted-Outline.svg"
   inkscape:export-filename="C:\Users\Kuinox\bitmap.png"
   inkscape:export-xdpi="1195"
   inkscape:export-ydpi="1195"
   xmlns:inkscape="http://www.inkscape.org/namespaces/inkscape"
   xmlns:sodipodi="http://sodipodi.sourceforge.net/DTD/sodipodi-0.dtd"
   xmlns="http://www.w3.org/2000/svg"
   xmlns:svg="http://www.w3.org/2000/svg"
   xmlns:rdf="http://www.w3.org/1999/02/22-rdf-syntax-ns#"
   xmlns:cc="http://creativecommons.org/ns#"
   xmlns:dc="http://purl.org/dc/elements/1.1/">
  <defs
     id="defs2" />
  <sodipodi:namedview
     id="base"
     pagecolor="#ffffff"
     bordercolor="#666666"
     borderopacity="1.0"
     inkscape:pageopacity="0"
     inkscape:pageshadow="2"
     inkscape:zoom="1.4142136"
     inkscape:cx="331.27953"
     inkscape:cy="198.34345"
     inkscape:document-units="mm"
     inkscape:current-layer="layer7"
     showgrid="false"
     inkscape:window-width="1920"
     inkscape:window-height="1009"
     inkscape:window-x="1072"
     inkscape:window-y="-8"
     inkscape:window-maximized="1"
     showguides="false"
     inkscape:snap-page="false"
     scale-x="1"
     fit-margin-top="0"
     fit-margin-left="0"
     fit-margin-right="0"
     fit-margin-bottom="0"
     inkscape:showpageshadow="2"
     inkscape:pagecheckerboard="true"
     inkscape:deskcolor="#d1d1d1" />
  <metadata
     id="metadata5">
    <rdf:RDF>
      <cc:Work
         rdf:about="">
        <dc:format>image/svg+xml</dc:format>
        <dc:type
           rdf:resource="http://purl.org/dc/dcmitype/StillImage" />
      </cc:Work>
    </rdf:RDF>
  </metadata>
  <g
     inkscape:groupmode="layer"
     id="layer3"
     inkscape:label="refined"
     style="display:inline;opacity:1"
     transform="translate(-6.9110285,-124.2739)">
    <g
       inkscape:groupmode="layer"
       id="layer29"
       inkscape:label="background"
       style="display:inline" />
    <g
       inkscape:groupmode="layer"
       id="layer8"
       inkscape:label="back wing"
       style="display:inline;opacity:1" />
    <g
       inkscape:groupmode="layer"
       id="layer7"
       inkscape:label="dragon"
       style="display:inline;opacity:1">
      <path
         style="display:inline;opacity:1;fill:#009a94;fill-opacity:1;stroke:none;stroke-width:0.264583px;stroke-linecap:butt;stroke-linejoin:miter;stroke-opacity:1"
         d="m 84.7898,163.48893 c 0,0 -4.876649,-1.35438 -2.75055,-7.02402 0,0 1.437841,-3.66957 9.176149,-9.32344 0,0 -5.916099,-6.97678 -16.45218,-13.73311 0,0 -13.066999,-7.30759 -21.061958,-9.13446 0,0 4.782169,5.27591 1.511908,7.08707 0,0 -3.648231,2.28363 -8.420179,2.37812 0,0 34.73962,22.46057 26.654731,35.22269 0,0 8.50546,-1.68629 11.342079,-5.47285 z"
         id="path845"
         inkscape:connector-curvature="0"
         sodipodi:nodetypes="ccccccccc" />
      <path
         style="display:inline;opacity:1;fill:#00c8bd;fill-opacity:1;stroke:none;stroke-width:0.264583px;stroke-linecap:butt;stroke-linejoin:miter;stroke-opacity:1"
         d="m 78.647691,151.3937 c 0,0 -6.188811,-12.80562 -25.966751,-17.28239 0,0 -11.425772,-3.14041 -31.003271,-2.87314 0,0 -7.75081,0.26727 -14.7666405,3.27405 0,0 9.5265205,0.49442 14.5661905,2.43883 0,0 5.65823,1.83343 7.48355,8.61945 0,0 0.7171,3.43704 -2.28731,6.89603 0,0 -2.70398,3.14001 -3.96624,4.59682 0,0 9.39194,-2.44107 15.817539,-0.3622 0,0 2.666251,0.44092 5.018392,3.29151 0,0 2.39939,2.66161 1.170969,6.1579 0,0 -1.11352,3.22847 -3.1081,6.31531 0,0 2.919111,-3.43325 9.817171,-4.80341 0,0 5.123098,-0.64579 9.27063,1.21263 0,0 7.78555,2.80336 10.71486,7.7643 l 6.52009,-3.1183 c 0,0 -3.023812,-5.10268 -2.97656,-11.00856 0,0 0.398399,-6.12643 3.695481,-11.11883 z"
         id="path878"
         inkscape:connector-curvature="0"
         sodipodi:nodetypes="cccccccccccccccccc" />
      <path
         style="display:inline;opacity:1;fill:#ffffff;fill-opacity:1;stroke:none;stroke-width:0.264583px;stroke-linecap:butt;stroke-linejoin:miter;stroke-opacity:1"
         d="m 71.86434,171.30071 0.566899,65.20119 25.058931,-0.0506 c 0,0 21.69583,-0.66145 27.91354,-22.75417 0,0 4.35622,-13.25462 -2.38125,-26.32604 0,0 -7.54276,-13.30517 -24.13289,-15.50344 z m 17.74104,13.52475 c 12.56471,-0.0428 17.2775,7.0435 17.2775,7.0435 4.8948,5.02709 4.36562,14.2875 4.36562,14.2875 -0.92603,7.67292 -4.36562,11.50937 -4.36562,11.50937 -6.08541,8.33437 -18.709451,5.55109 -18.709451,5.55109 l 0.191201,-38.36459 c 0.421759,-0.0167 0.835441,-0.0255 1.24075,-0.0269 z"
         id="path861"
         inkscape:connector-curvature="0" />
      <path
         style="display:inline;opacity:1;fill:#ffffff;fill-opacity:1;stroke:none;stroke-width:0.264583px;stroke-linecap:butt;stroke-linejoin:miter;stroke-opacity:1"
         d="m 72.56982,236.50165 -6.972332,-0.0158 c 0,0 6.186141,-5.3228 7.066061,-13.34263 z"
         id="path901-7"
         inkscape:connector-curvature="0"
         sodipodi:nodetypes="cccc" />
      <path
         id="path858"
         style="display:inline;opacity:1;fill:#00c8bd;fill-opacity:1;stroke:#00c8bd;stroke-width:0.2;stroke-linecap:butt;stroke-linejoin:miter;stroke-miterlimit:4;stroke-dasharray:none;stroke-opacity:1"
         d="m 22.433459,212.49842 c 0,0 0.45344,11.43178 8.77934,18.21074 0,0 7.323651,6.31124 16.076729,7.11305 0,0 8.418992,1.5368 18.30796,-1.33635 0,0 5.412211,-1.73725 10.022613,-4.81085 0,0 6.147199,-4.14268 8.886719,-7.55036 0,0 2.173989,-2.25541 3.674949,-6.24744 0,0 1.24792,-3.38098 1.40317,-5.74629 0,0 -0.222028,-1.18963 -1.279308,-2.26542 0,0 -0.6584,4.70426 -4.667441,9.84919 0,0 -4.87767,6.48129 -11.8935,9.68852 0,0 -5.87993,3.47451 -14.833459,4.47677 0,0 -7.483541,1.1359 -15.568451,-3.40768 0,0 -3.961551,-1.62263 -7.52661,-8.09441 0,0 -1.627371,-4.26681 -0.892381,-7.34041 0,0 0.790511,-5.96968 2.767271,-8.5975 z m 13.257601,-6.05844 c 0,0 5.10268,-8.17373 13.229169,-12.23698 0,0 5.5279,-2.92931 11.055811,-3.44903 0,0 6.682269,-0.97651 12.2472,1.35438 0,0 21.805461,-8.9542 26.666219,-20.24062 0,0 2.561701,-4.0159 3.477371,-11.22589 0,0 0.32052,-3.81123 -0.0102,-6.36257 l -0.37799,-1.84263 c 0,0 -0.41046,-2.07503 0.18899,-3.77976 0,0 0.78037,-3.42095 3.5203,-6.11626 0,0 0.83523,-1.30295 4.40995,-0.86863 0,0 4.74403,3.30746 9.85556,4.57699 l 6.24743,1.9043 v 0 c 0,0 0.66818,-0.90204 0.46772,-3.14042 0,0 -3.90881,-3.54131 -4.54358,-4.74403 0,0 -1.26954,-3.64155 -4.10928,-6.41447 l -1.50338,-1.73725 c 0,0 -9.68431,-7.9084 -23.216943,-0.29595 0,0 11.403253,-4.66593 16.725443,1.32292 0,0 -6.23722,0.30937 -11.682834,4.68591 0,0 -3.073598,2.40543 -4.476768,5.07812 0,0 -1.503392,2.13816 -2.47224,7.85105 0,0 -0.133641,2.17156 -0.801812,4.10927 0,0 -1.12249,2.89496 -3.15042,5.48993 0,0 -3.7117,3.60418 -10.59356,6.72485 0,0 -7.456609,2.73634 -19.541821,4.67271 0,0 -10.746859,2.38932 -18.364038,9.07106 0,0 -8.514881,6.11219 -12.962571,15.70208 0,0 -3.6257,5.31508 -3.54132,15.96936 z"
         inkscape:connector-curvature="0" />
      <path
         inkscape:connector-curvature="0"
         id="path2730"
         style="display:inline;opacity:1;fill:#ffffff;fill-opacity:1;stroke:none;stroke-width:0.264583px;stroke-linecap:butt;stroke-linejoin:miter;stroke-opacity:1"
         d="m 86.704346,185.3397 c 0,0 16.091764,-9.91903 12.185224,-13.47205 m 0,0 -27.025232,-0.56694 0.192069,20.92821 c 0,0 7.772431,-1.08948 14.647939,-6.88922" />
      <path
         style="display:inline;opacity:1;fill:#00c8bd;fill-opacity:1;stroke:none;stroke-width:0.264583px;stroke-linecap:butt;stroke-linejoin:miter;stroke-opacity:1"
         d="m 71.744759,211.17279 c 0,0 10.434201,0.64736 17.87366,-6.22738 0,0 4.48559,-3.39642 5.579351,-8.88182 0,0 0.69919,-3.41719 -3.140509,-3.7333 0,0 2.804078,1.03394 1.737249,3.80859 0,0 -1.46371,4.69288 -9.03741,8.16554 0,0 -6.76951,3.00936 -12.678241,2.99296 0,0 -1.263229,0.21668 -1.40317,1.73725 0,0 -0.334669,1.43283 1.06907,2.13816 z"
         id="path869"
         inkscape:connector-curvature="0"
         sodipodi:nodetypes="ccccccccc" />
      <path
         style="display:inline;opacity:1;fill:#ffffff;fill-opacity:1;stroke:none;stroke-width:0.264583px;stroke-linecap:butt;stroke-linejoin:miter;stroke-opacity:1"
         d="m 71.864338,171.30071 c -2.207332,-0.004 -6.216615,0 -6.216615,0 0,0 5.760895,5.34199 6.640826,13.36182 0,0 4.847519,-12.76009 0.42428,-13.26497 z"
         id="path901"
         inkscape:connector-curvature="0"
         sodipodi:nodetypes="cccsc" />
      <path
         id="path1277"
         style="display:inline;opacity:1;fill:none;fill-opacity:1;stroke:#000000;stroke-width:2.1354331;stroke-linecap:butt;stroke-linejoin:miter;stroke-miterlimit:4;stroke-dasharray:none;stroke-opacity:1"
         d="m 176.8457,0 c 0,0 18.07294,19.939827 5.71289,26.785156 0,0 -8.60585,5.383278 -21.10937,7.822266 -17.41826,-3.428476 -53.99102,-8.990245 -105.638673,-8.285156 0,0 -29.294022,1.008839 -55.810547,12.373046 0,0 36.005163,1.869799 55.052734,9.21875 0,0 21.386309,6.928223 28.285157,32.576172 0,0 2.710719,12.991105 -8.644532,26.064456 0,0 -10.221441,11.86699 -14.992187,17.37304 0,0 35.497474,-9.22433 59.783208,-1.36718 0,0 10.07681,1.66557 18.96679,12.43945 0,0 9.06863,10.05911 4.42578,23.27344 0,0 -4.20752,12.20234 -11.74609,23.86914 0,0 11.03211,-12.97574 37.10352,-18.1543 0,0 19.36335,-2.43996 35.03906,4.58399 0,0 5.80404,2.09637 13.21875,6.05664 -7.87938,1.66049 -16.55785,3.31062 -26.04102,4.83007 0,0 -40.61691,9.03134 -69.40625,34.28516 0,0 -32.182019,23.10045 -48.992186,59.3457 0,0 -13.703682,20.08928 -13.384765,60.35743 0,0 1.713672,43.20685 33.18164,68.82812 0,0 27.679221,23.85235 60.761721,26.88281 0,0 31.81968,5.80837 69.19531,-5.05078 l 25.82813,0.0586 v 0.002 h 0.28125 0.24414 v -0.002 l 94.18554,-0.1875 c 0,0 82,-2.49996 105.5,-86 0,0 16.46446,-50.09621 -9,-99.5 0,0 -28.50808,-50.28729 -91.21093,-58.59571 0,0 9.68177,-15.17933 13.14257,-42.42969 0,0 1.21286,-14.40401 -0.0371,-24.04687 l -1.42968,-6.96484 c 0,0 -1.5508,-7.842086 0.71484,-14.28516 0,0 2.94905,-12.930189 13.30469,-23.117188 0,0 3.15721,-4.924727 16.66797,-3.283203 0,0 17.92888,12.500605 37.24804,17.298829 l 23.61329,7.197265 c 0,0 2.52522,-3.409122 1.76757,-11.869141 0,0 -14.77274,-13.383974 -17.17187,-17.929687 0,0 -4.79838,-13.763813 -15.53125,-24.244141 l -5.68164,-6.564453 c 0,0 -36.60304,-29.89060494 -87.75,-1.11914 0,0 43.09948,-17.635024 63.21484,5 0,0 -23.5744,1.169684 -44.15625,17.710937 0,0 -11.6166,9.089901 -16.91992,19.191406 0,0 -5.68196,8.081803 -9.34375,29.673826 0,0 -0.50588,8.20762 -3.03125,15.53125 0,0 -4.24163,10.94224 -11.90625,20.75 0,0 -4.56454,4.42328 -13.28711,10.40625 -4.8895,-2.66143 -12.93258,-9.6048 -7.11328,-25.12304 0,0 5.43449,-13.86933 34.68164,-35.238286 0,0 -22.36023,-26.368561 -62.18164,-51.904296 0,0 -49.38635,-27.6187325 -79.60352,-34.523438 z m 135.69922,228.85547 c 47.48867,-0.16177 65.30078,26.62109 65.30078,26.62109 18.50003,19.00003 16.5,54 16.5,54 -3.49995,29.00002 -16.5,43.5 -16.5,43.5 -22.99997,31.49998 -70.71289,20.98047 -70.71289,20.98047 l 0.10157,-20.38281 c 0.2122,-0.57891 4.66142,-12.78648 5.23437,-21.51563 0,0 -0.83992,-4.49652 -4.83594,-8.5625 0,0 -0.0975,0.55722 -0.25586,1.35547 l 0.0781,-15.60351 c 1.74608,-1.35356 3.46425,-2.79853 5.14062,-4.34766 0,0 16.95204,-12.83614 21.08594,-33.56836 0,0 2.64311,-12.91658 -11.86914,-14.11133 0,0 10.59852,3.90767 6.56641,14.39453 0,0 -3.7251,11.92921 -20.85352,23.46094 l 0.33008,-66.11914 c 1.59405,-0.0631 3.15758,-0.0963 4.68945,-0.10156 z M 212.59375,250.5 c 9.08221,-0.0719 21.92457,0.90831 33.58008,5.625 l 0.50195,57.66211 c -0.12407,3.6e-4 -0.24917,0.002 -0.37305,0.002 0,0 -4.77382,0.81937 -5.30273,6.56641 0,0 -1.26445,5.41622 4.04102,8.08203 0,0 0.62233,0.0367 1.76171,0.0527 l 0.45899,52.66016 c -1.55107,6.89979 -4.05851,13.15402 -6.91211,18.62109 -8.16018,3.97025 -26.59902,11.71508 -51.37305,14.48829 0,0 -28.2827,4.29172 -58.83984,-12.88086 0,0 -14.97303,-6.13153 -28.44727,-30.5918 0,0 -6.150959,-16.12739 -3.373044,-27.74414 0,0 2.987764,-22.56222 10.458984,-32.49414 0,0 19.28571,-30.89284 50,-46.25 0,0 20.89226,-11.07086 41.78516,-13.03516 0,0 4.83352,-0.70666 12.0332,-0.76367 z"
         transform="matrix(0.26458333,0,0,0.26458333,6.9110285,124.2739)"
         inkscape:label="outline"
         inkscape:export-filename="C:\Users\Kuinox\path1277.png"
         inkscape:export-xdpi="1195"
         inkscape:export-ydpi="1195" />
    </g>
    <g
       inkscape:groupmode="layer"
       id="layer13"
       inkscape:label="dragon body"
       style="display:inline;opacity:1">
      <flowRoot
         xml:space="preserve"
         id="flowRoot893"
         style="font-style:normal;font-weight:normal;font-size:40px;line-height:1.25;font-family:sans-serif;letter-spacing:0px;word-spacing:0px;display:inline;fill:#000000;fill-opacity:1;stroke:none"><flowRegion
           id="flowRegion895"><rect
             id="rect897"
             width="33.941124"
             height="48.08326"
             x="612.35449"
             y="505.92258" /></flowRegion><flowPara
           id="flowPara899" /></flowRoot>
    </g>
    <g
       inkscape:groupmode="layer"
       id="layer16"
       inkscape:label="D"
       style="display:inline;opacity:1" />
    <g
       inkscape:groupmode="layer"
       id="layer15"
       inkscape:label="tail"
       style="opacity:1" />
    <g
       inkscape:groupmode="layer"
       id="layer18"
       inkscape:label="tail end" />
  </g>
  <g
     inkscape:groupmode="layer"
     id="layer14"
     inkscape:label="letters"
     transform="translate(-6.9110285,-124.2739)">
    <g
       inkscape:groupmode="layer"
       id="layer26"
       inkscape:label="o" />
    <g
       inkscape:groupmode="layer"
       id="layer31"
       inkscape:label="c"
       style="display:inline" />
    <g
       inkscape:groupmode="layer"
       id="layer23"
       inkscape:label="a" />
    <g
       inkscape:groupmode="layer"
       id="layer28"
       inkscape:label="r" />
  </g>
</svg>
