<?xml version="1.0" encoding="UTF-8" standalone="no"?>
<!-- Created with Inkscape (http://www.inkscape.org/) -->

<svg
   xmlns:dc="http://purl.org/dc/elements/1.1/"
   xmlns:cc="http://creativecommons.org/ns#"
   xmlns:rdf="http://www.w3.org/1999/02/22-rdf-syntax-ns#"
   xmlns:svg="http://www.w3.org/2000/svg"
   xmlns="http://www.w3.org/2000/svg"
   xmlns:sodipodi="http://sodipodi.sourceforge.net/DTD/sodipodi-0.dtd"
   xmlns:inkscape="http://www.inkscape.org/namespaces/inkscape"
   width="102.185mm"
   height="103.59305mm"
   viewBox="0 0 102.185 103.59305"
   version="1.1"
   id="svg4013"
   inkscape:version="0.92.4 (5da689c313, 2019-01-14)"
   sodipodi:docname="Mascot-v2.svg">
  <defs
     id="defs4007" />
  <sodipodi:namedview
     id="base"
     pagecolor="#ffffff"
     bordercolor="#666666"
     borderopacity="1.0"
     inkscape:pageopacity="0.0"
     inkscape:pageshadow="2"
     inkscape:zoom="0.35"
     inkscape:cx="10.24837"
     inkscape:cy="267.19496"
     inkscape:document-units="mm"
     inkscape:current-layer="layer1"
     showgrid="false"
     fit-margin-top="0"
     fit-margin-left="0"
     fit-margin-right="0"
     fit-margin-bottom="0"
     inkscape:window-width="1920"
     inkscape:window-height="1001"
     inkscape:window-x="-9"
     inkscape:window-y="-9"
     inkscape:window-maximized="1" />
  <metadata
     id="metadata4010">
    <rdf:RDF>
      <cc:Work
         rdf:about="">
        <dc:format>image/svg+xml</dc:format>
        <dc:type
           rdf:resource="http://purl.org/dc/dcmitype/StillImage" />
        <dc:title></dc:title>
      </cc:Work>
    </rdf:RDF>
  </metadata>
  <g
     inkscape:label="Layer 1"
     inkscape:groupmode="layer"
     id="layer1"
     transform="translate(23.122262,-115.93562)">
    <path
       style="fill:#050505;fill-opacity:1;stroke:#181818;stroke-width:0.26458332px;stroke-linecap:butt;stroke-linejoin:miter;stroke-opacity:1"
       d="m 8.7927672,171.74945 c 0,0 -10.96131,9.82737 -31.7500012,24.75743 0,0 8.504466,18.89882 32.3169662,22.86757 0,0 0.7559508,-9.63839 19.6547628,-34.01786 0,0 -10.961312,-13.41815 -20.2217278,-13.60714 z"
       id="path888"
       inkscape:connector-curvature="0"
       sodipodi:nodetypes="ccccc" />
    <path
       style="display:inline;opacity:1;fill:#000000;fill-opacity:1;stroke:#000000;stroke-width:0.26499999;stroke-linecap:butt;stroke-linejoin:miter;stroke-miterlimit:4;stroke-dasharray:none;stroke-opacity:1"
       d="m -20.559281,116.00183 c 0,0 12.0271282,20.84702 30.0678222,21.11429 0,0 4.0090438,0.26727 8.0180868,-1.33635 0,0 5.211755,-2.13815 8.953529,-1.20271 0,0 2.298102,-4.26325 -3.796765,-9.17694 0,0 8.646205,-0.23623 20.977674,15.02455 2.16108,2.46479 5.079611,3.53726 7.37448,3.87432 0,0 10.657372,-0.13364 10.590551,-10.7576 0,0 15.20239,3.00903 16.808781,21.62436 0,0 -1.03943,1.60639 -3.96875,8.31547 l -0.803201,-5.38616 c 0,0 -33.552021,12.83066 -52.862247,8.7548 0,0 9.153983,12.56166 36.749556,11.62622 l 9.888982,1.60362 1.603608,18.04069 -8.018079,4.6104 c 0,0 -22.450639,6.1472 -42.963579,-6.48129 0,0 -1.202713,-6.5481 3.407686,-12.56167 0,0 -4.009044,1.73726 -6.1472,10.62397 l -7.4167288,-5.01131 c 0,0 -0.133635,-5.54584 0.06682,-8.01808 0,0 0.06681,-1.00226 3.8754048,-6.1472 0,0 -0.601356,-0.93544 -6.0135638,5.67948 0,0 -0.868627,2.07134 -1.069078,5.4122 0,0 -6.614922,-4.20949 -10.824417,-12.02712 0,0 0,-1.33635 0.467722,-2.07134 0,0 5.54584301,-4.54358 6.614921,-5.41221 0,0 -2.873148,-0.26727 -9.688521,4.14268 0,0 -6.4144692,-9.08716 -8.5526242,-18.57523 0,0 4.343129,7.34991 16.63752721,2.60587 0,0 -15.69056521,-8.55126 -19.97839821,-38.88771 z"
       id="path827"
       inkscape:connector-curvature="0"
       sodipodi:nodetypes="ccccccccccccccccccccccccccccccc" />
    <path
       style="display:inline;opacity:1;fill:#000000;fill-opacity:1;stroke:#000000;stroke-width:0.26458332px;stroke-linecap:butt;stroke-linejoin:miter;stroke-opacity:1"
       d="m 66.346206,140.28326 c 0,0 3.8086,1.5368 4.075872,4.87767 l -1.80407,-0.4009 c 0,0 -1.069091,-2.87315 -2.271802,-4.47677 z"
       id="path2707"
       inkscape:connector-curvature="0" />
    <path
       style="fill:#ffffff;fill-opacity:1;stroke:#272727;stroke-width:0.26458332px;stroke-linecap:butt;stroke-linejoin:miter;stroke-opacity:1"
       d="m 24.573273,146.47229 c 0,0 -1.653646,1.46466 -1.889881,8.36273 0,0 1.748141,-4.86645 13.843375,-2.78758 0,0 -2.929313,-10.58333 -9.16592,-10.06361 0,0 -7.890251,-1.08669 -11.386532,9.82738 0,0 4.015997,-3.30729 6.614583,-5.14993 0,0 1.039434,-0.70871 1.984375,-0.18899 z"
       id="path834"
       inkscape:connector-curvature="0" />
    <path
       style="display:inline;opacity:1;fill:#009a94;fill-opacity:1;stroke:#009b94;stroke-width:0;stroke-linecap:butt;stroke-linejoin:miter;stroke-miterlimit:4;stroke-dasharray:none;stroke-opacity:1"
       d="m 32.894625,174.73431 c 0,0 4.409951,1.13589 8.686261,-1.67044 0,0 -0.668168,-2.27179 8.28535,-4.27631 0,0 3.836271,-0.52504 11.186181,-0.32459 l 10.956661,5.29004 c 0,0 15.93358,14.34674 -3.37665,35.46103 0,0 -1.527302,2.67269 -5.335892,3.20723 0,0 -2.739509,1.86892 -7.082639,0.39894 0,0 2.47224,-3.60814 5.211749,-12.76212 0,0 2.204982,-10.89123 0.935451,-14.633 0,0 -1.202719,-7.08264 -7.55037,-6.94901 0,0 -12.49485,0.53454 -21.916102,-3.74177 z"
       id="path837"
       inkscape:connector-curvature="0"
       sodipodi:nodetypes="cccccccccccc" />
    <path
       style="opacity:1;fill:#00c8bd;fill-opacity:1;stroke:none;stroke-width:0.26458332px;stroke-linecap:butt;stroke-linejoin:miter;stroke-opacity:1"
       d="m 49.866236,168.78756 c 0,0 5.21176,-0.33409 9.020352,1.13589 0,0 24.55648,19.11841 3.862279,40.94653 0,0 3.59078,-7.74851 4.913691,-14.36309 0,0 -4.14025,9.33386 -11.448661,16.31332 0,0 2.527631,1.34134 7.082639,0.73499 0,0 4.04245,-0.63475 6.28083,-3.107 0,0 19.062462,-17.21024 3.140422,-37.45114 l -11.759861,-5.47903 c 0,0 -6.113799,-0.16704 -11.091691,1.26953 z"
       id="path883"
       inkscape:connector-curvature="0"
       sodipodi:nodetypes="cccccccccc" />
  </g>
</svg>
