<?xml version="1.0" encoding="UTF-8" standalone="no"?>
<!-- Created with Inkscape (http://www.inkscape.org/) -->

<svg
   xmlns:dc="http://purl.org/dc/elements/1.1/"
   xmlns:cc="http://creativecommons.org/ns#"
   xmlns:rdf="http://www.w3.org/1999/02/22-rdf-syntax-ns#"
   xmlns:svg="http://www.w3.org/2000/svg"
   xmlns="http://www.w3.org/2000/svg"
   xmlns:sodipodi="http://sodipodi.sourceforge.net/DTD/sodipodi-0.dtd"
   xmlns:inkscape="http://www.inkscape.org/namespaces/inkscape"
   width="167.70601mm"
   height="121.26992mm"
   viewBox="0 0 167.70601 121.26992"
   version="1.1"
   id="svg8"
   inkscape:version="0.92.4 (5da689c313, 2019-01-14)"
   sodipodi:docname="angry.svg"
   inkscape:export-filename="D:\Peti\Fresh\emojis\angry.png"
   inkscape:export-xdpi="1195"
   inkscape:export-ydpi="1195">
  <defs
     id="defs2" />
  <sodipodi:namedview
     id="base"
     pagecolor="#ffffff"
     bordercolor="#666666"
     borderopacity="1.0"
     inkscape:pageopacity="0.0"
     inkscape:pageshadow="2"
     inkscape:zoom="0.35"
     inkscape:cx="-696.85986"
     inkscape:cy="364.0505"
     inkscape:document-units="mm"
     inkscape:current-layer="layer7"
     showgrid="false"
     inkscape:window-width="1920"
     inkscape:window-height="1001"
     inkscape:window-x="-9"
     inkscape:window-y="-9"
     inkscape:window-maximized="1"
     fit-margin-top="0"
     fit-margin-left="0"
     fit-margin-right="0"
     fit-margin-bottom="0" />
  <metadata
     id="metadata5">
    <rdf:RDF>
      <cc:Work
         rdf:about="">
        <dc:format>image/svg+xml</dc:format>
        <dc:type
           rdf:resource="http://purl.org/dc/dcmitype/StillImage" />
        <dc:title />
      </cc:Work>
    </rdf:RDF>
  </metadata>
  <g
     inkscape:groupmode="layer"
     id="layer7"
     inkscape:label="steam"
     transform="translate(-12.567121,-74.976435)"
     style="display:inline">
    <path
       style="fill:#797979;fill-opacity:1;stroke:none;stroke-width:0.26458332px;stroke-linecap:butt;stroke-linejoin:miter;stroke-opacity:1"
       d="m 126.32789,130.8336 17.26602,-11.14243 c 0,0 -2.93209,-8.08619 1.9816,-12.24393 0,0 7.18154,-9.260417 15.68601,0.18898 0,0 9.4494,-6.04761 16.63095,3.96876 0,0 7.18155,9.63839 -3.40178,13.04017 0,0 10.39434,3.59078 2.45684,14.55209 0,0 -3.40178,7.18154 -10.39434,2.64583 0,0 0.75595,7.74851 -9.07143,7.18155 0,0 -9.62496,0.70454 -6.97913,-14.22552 l -25.24381,3.45321 z"
       id="path911"
       inkscape:connector-curvature="0"
       sodipodi:nodetypes="cccccccccccc" />
  </g>
  <g
     inkscape:groupmode="layer"
     id="layer8"
     inkscape:label="anger"
     transform="translate(-12.567121,-74.976435)"
     style="display:inline">
    <path
       style="fill:none;stroke:#dbdbdb;stroke-width:4.31677675;stroke-linecap:butt;stroke-linejoin:miter;stroke-miterlimit:4;stroke-dasharray:none;stroke-opacity:1"
       d="m 59.778722,77.351828 c -4.385904,1.432996 -0.311749,-0.100787 -3.02728,1.318794 -0.987599,0.516283 -2.049609,0.771195 -3.027283,1.31879 -1.38264,0.774425 -2.690917,1.75839 -4.036373,2.637584 -0.67273,0.439601 -1.313943,0.973653 -2.018189,1.318795 -3.61196,1.770186 -0.460716,-0.69213 -4.036374,1.978194 -1.052987,0.78637 -1.942538,1.928754 -3.027279,2.637584 -0.475691,0.310843 -1.01984,0.401256 -1.513641,0.659394 -0.861182,-0.233319 -0.971273,0.964373 -1.513645,1.318794 -0.150417,0.09829 -0.354117,-0.09829 -0.504543,0 -0.212738,0.139007 -0.29181,0.520382 -0.504546,0.659395 -0.150418,0.09829 -0.354124,-0.09829 -0.504552,0 -0.212732,0.139021 -0.504545,0.348554 -0.504545,0.659397 0,0.219798 0.354122,0.09829 0.504545,0 0.212736,-0.139021 0.278908,-0.561102 0.504552,-0.659397 0.3191,-0.13902 0.682768,0.106614 1.009089,0 0.680414,-0.222315 2.100728,-1.663033 2.52274,-1.978189 2.173593,-1.623254 2.108163,-1.224525 4.540921,-2.637585 0.687308,-0.39922 1.31394,-0.973651 2.018187,-1.318797 0.649278,-0.318203 1.368902,-0.341188 2.018186,-0.659395 1.408487,-0.690284 2.627885,-1.947293 4.036377,-2.637585 0.649284,-0.318203 1.38082,-0.302401 2.018186,-0.659395 0.557361,-0.312178 0.971272,-0.964371 1.513642,-1.318794 0.475691,-0.310843 1.051872,-0.314543 1.513637,-0.659395 0.730119,-0.545252 2.484644,-2.892608 2.018188,-1.978189 -2.185641,4.284656 -2.642857,3.586554 -5.550012,5.275168 -0.687309,0.399229 -1.345457,0.879194 -2.018188,1.318795 -3.363646,2.197987 -6.727291,4.395977 -10.090937,6.593966 -0.86639,1.2522 -2.455464,1.274833 -3.531829,1.978181 -0.212738,0.139021 -0.291813,0.520395 -0.504545,0.65941 -0.301534,0.197024 -1.009096,-0.434088 -1.009096,0.659388 0,0.219797 0.336367,0 0.504543,0 0.336368,0 0.679264,0.08618 1.009098,0 0.521508,-0.136311 0.997679,-0.490812 1.513642,-0.659388 0.831957,-0.271834 1.709176,-0.304988 2.522733,-0.65941 0.713537,-0.310832 1.304651,-1.007943 2.018188,-1.318786 0.813556,-0.354414 1.701334,-0.337351 2.522733,-0.659395 0.867494,-0.340124 1.663524,-0.94449 2.522734,-1.318794 1.470996,-0.640817 3.069926,-0.677972 4.540924,-1.318789 0.713536,-0.310851 1.313942,-0.973652 2.018187,-1.318796 0.649278,-0.318206 1.351432,-0.410428 2.018186,-0.659393 0.511375,-0.190959 1.009093,-0.439602 1.513639,-0.659404 0.50455,-0.219799 1.009095,-0.439593 1.513641,-0.659395 0.336368,0 0.682774,0.106642 1.009096,0 0.364838,-0.119208 0.652328,-0.503968 1.009092,-0.659395 0.159555,-0.0695 0.336367,0 0.504546,0 0.168182,0 0.385624,-0.15543 0.504549,0 0.118934,0.155431 0.0752,0.462802 0,0.659395 -0.27533,0.719665 -1.074692,0.9746 -1.513641,1.318799 -0.519975,0.407732 -1.009096,0.879194 -1.513642,1.318787 -0.504546,0.4396 -1.0202,0.858163 -1.513641,1.318797 -0.684278,0.638771 -1.305096,1.395723 -2.018188,1.978188 -0.637806,0.52097 -1.345458,0.879195 -2.018186,1.318792 -1.34546,0.879197 -2.690919,1.758391 -4.036376,2.637586 -0.67273,0.439605 -1.365154,0.831102 -2.018186,1.318789 -0.526494,0.393186 -1.009094,0.8792 -1.513639,1.318802 -0.50455,0.439592 -0.993667,0.911054 -1.513641,1.318782 -0.322477,0.25288 -0.743174,0.311866 -1.009095,0.659397 -0.118935,0.155435 0.118934,0.503991 0,0.659412 -0.118935,0.155421 -0.35412,-0.09829 -0.504547,0 -0.131352,0.08579 -0.85252,0.864003 -0.504545,1.318783 0.11891,0.15543 0.33636,0 0.504545,0 0.504547,0 1.015958,0.1084 1.513642,0 0.683997,-0.14899 1.330109,-0.54699 2.018186,-0.6594 0.667537,-0.10896 1.350654,0.1091 2.018189,0 0.688078,-0.11247 1.341268,-0.462793 2.018188,-0.659383 0.83714,-0.243121 1.690774,-0.387576 2.522732,-0.659412 0.515959,-0.168577 1.002263,-0.468438 1.513641,-0.659397 4.434758,-1.655945 -0.09737,0.262217 3.53183,-1.318782 0.504545,-0.219807 1.009091,-0.439602 1.513637,-0.659399 0.336368,0 0.682773,0.106642 1.009096,0 0.364839,-0.119209 0.652325,-0.503982 1.009092,-0.659403 0.319106,-0.139021 0.672727,0 1.009095,0 0.168183,0 0.504547,-0.219797 0.504547,0 0,0.219806 -0.354119,-0.09823 -0.504547,0 -0.212736,0.139007 -0.336368,0.439607 -0.504546,0.659403 -0.168182,0.219797 -0.336367,0.439592 -0.504549,0.659399 -0.168184,0.219797 -0.278904,0.561099 -0.504546,0.659388 -1.790296,0.779922 -0.255281,-1.068566 -2.018188,0.659394 -0.380549,0.373015 -0.628541,0.94578 -1.009091,1.318809 -0.300853,0.294873 -0.672729,0.439583 -1.009096,0.659383 -0.672728,0.4396 -1.34546,0.8792 -2.018187,1.3188 -0.336362,0.2198 -0.696184,0.38677 -1.009092,0.65938 -0.233615,0.20355 -1.375106,1.49986 -1.009096,1.97821 0.04294,0.0562 1.263205,0.1091 1.513641,0 0.356767,-0.15544 0.652326,-0.50398 1.009092,-0.6594 0.432227,-0.18829 1.57307,0.14544 2.018188,0 0.364842,-0.11921 0.672729,-0.43961 1.009095,-0.6594"
       id="path916"
       inkscape:connector-curvature="0" />
  </g>
  <g
     inkscape:groupmode="layer"
     id="layer3"
     inkscape:label="face"
     style="display:inline;opacity:1"
     transform="translate(-12.567121,-74.976435)">
    <path
       style="fill:#000000;fill-opacity:1;stroke:#ffffff;stroke-width:4;stroke-linecap:butt;stroke-linejoin:miter;stroke-miterlimit:4;stroke-dasharray:none;stroke-opacity:1"
       d="m 39.02135,146.39362 c 0,0 -23.386083,-13.89802 -24.455161,-48.910324 0,0 12.561668,25.256974 37.150465,25.791514 0,0 17.372519,-2.00452 19.64431,-1.73725 0,0 0,-9.2208 -5.746295,-11.8935 0,0 11.358955,0.13364 26.459683,18.57523 0,0 4.276313,2.00452 12.160768,-2.27179 0,0 -0.66818,3.74178 -3.60814,6.28084 l 1.33634,1.73725 c 0,0 7.08265,-2.27179 9.2208,-3.74178 0,0 4.27632,-4.14267 2.6727,-9.75533 0,0 12.02713,1.87088 17.10525,13.22984 0,0 4.14268,8.55262 3.60814,13.89801 l -4.94449,11.09169 3.0736,6.41447 c 0,0 -2.40543,14.43255 -6.41447,18.17433 0,0 -30.33509,-3.47451 -66.81738,10.82441 0,0 -11.49259,-4.40995 -18.307963,-11.75986 0,0 2.258361,-4.4748 3.728343,-7.01386 0,0 -5.599229,3.67299 -5.732864,4.60844 0,0 -6.548104,-6.54811 -8.018086,-10.69078 0,0 4.409947,-7.48355 7.750816,-9.2208 0,0 -8.552625,2.53906 -10.557146,5.74629 0,0 -10.557146,-14.03165 -10.824416,-23.51972 0,0 9.755336,7.61718 21.515196,4.14268 z"
       id="path828"
       inkscape:connector-curvature="0"
       sodipodi:nodetypes="ccccccccccccccccccccccccc" />
  </g>
  <g
     inkscape:groupmode="layer"
     id="layer5"
     inkscape:label="mouth"
     transform="translate(-12.567121,-74.976435)"
     style="display:inline">
    <path
       style="fill:none;stroke:#ffffff;stroke-width:4;stroke-linecap:butt;stroke-linejoin:miter;stroke-miterlimit:4;stroke-dasharray:none;stroke-opacity:1"
       d="m 129.62572,158.68802 -2.53123,-7.20886 c 0,0 -11.90625,2.36236 -15.11904,13.32367 0,0 -0.94494,-5.00819 -3.49628,-7.74851 0,0 -10.583337,-0.0945 -14.552087,2.83482 0,0 -3.401785,2.17336 -5.669642,5.66964 l -1.700893,-3.77976 c 0,0 -15.40253,-2.92932 -21.733631,9.92187"
       id="path846"
       inkscape:connector-curvature="0" />
  </g>
  <g
     inkscape:groupmode="layer"
     id="layer4"
     inkscape:label="eye"
     transform="translate(-12.567121,-74.976435)"
     style="display:inline">
    <path
       style="fill:#ffffff;fill-opacity:1;stroke:#ffffff;stroke-width:2;stroke-linecap:butt;stroke-linejoin:round;stroke-miterlimit:4;stroke-dasharray:none;stroke-opacity:1"
       d="m 89.202381,144.5811 c 0,0 -14.552084,-8.40997 -20.032739,-17.4814 0,0 1.039435,6.52009 5.57515,12.56771 l -3.307292,7.37054 z"
       id="path831"
       inkscape:connector-curvature="0" />
  </g>
</svg>
