<?xml version="1.0" encoding="UTF-8" standalone="no"?>
<!-- Created with Inkscape (http://www.inkscape.org/) -->

<svg
   xmlns:dc="http://purl.org/dc/elements/1.1/"
   xmlns:cc="http://creativecommons.org/ns#"
   xmlns:rdf="http://www.w3.org/1999/02/22-rdf-syntax-ns#"
   xmlns:svg="http://www.w3.org/2000/svg"
   xmlns="http://www.w3.org/2000/svg"
   xmlns:sodipodi="http://sodipodi.sourceforge.net/DTD/sodipodi-0.dtd"
   xmlns:inkscape="http://www.inkscape.org/namespaces/inkscape"
   width="129.84578mm"
   height="131.46927mm"
   viewBox="0 0 129.84578 131.46927"
   version="1.1"
   id="svg8"
   inkscape:version="0.92.4 (5da689c313, 2019-01-14)"
   sodipodi:docname="approved.svg"
   inkscape:export-filename="D:\Peti\Fresh\emojis\approved.png"
   inkscape:export-xdpi="1195"
   inkscape:export-ydpi="1195">
  <defs
     id="defs2" />
  <sodipodi:namedview
     id="base"
     pagecolor="#ffffff"
     bordercolor="#666666"
     borderopacity="1.0"
     inkscape:pageopacity="0.0"
     inkscape:pageshadow="2"
     inkscape:zoom="0.7"
     inkscape:cx="748.33464"
     inkscape:cy="396.9055"
     inkscape:document-units="mm"
     inkscape:current-layer="layer8"
     showgrid="false"
     inkscape:window-width="1920"
     inkscape:window-height="1001"
     inkscape:window-x="-9"
     inkscape:window-y="-9"
     inkscape:window-maximized="1"
     fit-margin-top="0"
     fit-margin-left="0"
     fit-margin-right="0"
     fit-margin-bottom="0" />
  <metadata
     id="metadata5">
    <rdf:RDF>
      <cc:Work
         rdf:about="">
        <dc:format>image/svg+xml</dc:format>
        <dc:type
           rdf:resource="http://purl.org/dc/dcmitype/StillImage" />
        <dc:title />
      </cc:Work>
    </rdf:RDF>
  </metadata>
  <g
     inkscape:groupmode="layer"
     id="layer3"
     inkscape:label="face"
     style="display:inline"
     transform="translate(-46.582233,-76.051564)">
    <path
       style="fill:#070707;fill-opacity:1;stroke:#ffffff;stroke-width:4;stroke-linecap:butt;stroke-linejoin:miter;stroke-miterlimit:4;stroke-dasharray:none;stroke-opacity:1"
       d="m 130.02381,115.9494 c 0,0 7.74851,1.51191 12.47321,-2.83482 0,0 0.35854,4.41393 -3.6505,5.88391 l 0.93544,2.00453 c 0,0 14.83346,-2.40543 13.36348,-13.89802 0,0 19.64431,4.81085 21.24793,28.33057 l -5.61266,10.42351 0.4009,21.11429 c 0,0 -38.48681,0.66818 -69.89098,15.63527 l -14.56619,-6.01356 c 0,0 1.069078,-8.68626 2.405426,-11.62623 0,0 -6.147199,3.34087 -8.018086,6.54811 0,0 -10.423511,-4.67722 -13.497111,-14.03165 0,0 2.405426,-4.94449 8.552625,-8.8199 0,0 -9.621703,2.27179 -10.824416,5.07812 0,0 -11.759859,-9.6217 -11.22532,-22.71791 0,0 10.824416,7.34992 20.713388,2.80633 0,0 -23.920622,-17.10525 -24.187892,-50.246668 0,0 18.307963,31.537808 41.159507,26.994218 0,0 13.229839,-4.14267 18.441599,-2.13815 0,0 1.20271,-9.087166 -5.07812,-12.2944 0,0 10.41788,-1.955511 26.85777,19.80245 z"
       id="path4544"
       inkscape:connector-curvature="0" />
  </g>
  <g
     inkscape:groupmode="layer"
     id="layer5"
     inkscape:label="mouth"
     style="display:inline"
     transform="translate(-46.582233,-76.051564)">
    <path
       style="fill:none;stroke:#ffffff;stroke-width:4;stroke-linecap:butt;stroke-linejoin:miter;stroke-miterlimit:4;stroke-dasharray:none;stroke-opacity:1"
       d="m 168.78071,145.85908 -1.73726,-6.41447 c 0,0 -8.01808,3.60814 -14.96709,5.07812 l -5.61266,5.47903 -5.21175,-3.0736 c 0,0 -29.53329,7.21628 -40.62497,1.60362"
       id="path4547"
       inkscape:connector-curvature="0" />
  </g>
  <g
     inkscape:groupmode="layer"
     id="layer8"
     inkscape:label="hand"
     transform="translate(-46.582233,-76.051564)"
     style="display:inline">
    <g
       id="g4668"
       transform="translate(-2.9399647,-4.2763124)">
      <g
         id="g4676"
         transform="translate(6.1471991,0.26726953)">
        <path
           inkscape:connector-curvature="0"
           id="path4672"
           d="m 106.21881,209.15403 c -1.27986,-0.25591 -2.07217,-0.66626 -4.17379,-2.16164 -1.05365,-0.74971 -2.097421,-1.2155 -3.014069,-1.34503 -2.04842,-0.28948 -3.775284,-1.12932 -4.545148,-2.21049 -1.075126,-1.50988 -1.274461,-4.30156 -1.171768,-16.41056 0.08258,-9.73741 0.160072,-11.31691 0.593799,-12.10313 0.827717,-1.50041 1.8478,-2.23356 4.62436,-3.32359 4.749336,-1.86451 6.032176,-2.89147 7.670246,-6.1403 2.32627,-4.61374 3.63326,-10.61067 3.63326,-16.67062 0,-5.73874 0.49381,-6.56817 3.91048,-6.56817 3.18368,0 4.98704,1.3687 6.75113,5.12393 1.25,2.66088 1.40999,5.98968 0.52099,10.83997 -0.74189,4.04767 -0.79263,5.53508 -0.20875,6.11897 0.33189,0.33188 2.10914,0.46795 8.13877,0.6231 13.66799,0.3517 18.42593,1.2604 21.71359,4.14701 3.05267,2.68028 3.78846,8.01653 1.46011,10.58933 -0.4551,0.50288 -0.43895,0.65204 0.22366,2.06676 1.27161,2.71493 0.65261,6.16866 -1.39412,7.77862 -0.79159,0.62267 -0.79352,0.63415 -0.30982,1.84304 0.98486,2.46139 0.44397,5.25582 -1.38262,7.14314 l -0.93458,0.96565 0.52478,1.66843 c 0.80633,2.56351 0.27337,4.83726 -1.53688,6.55676 -1.88637,1.79182 -1.38908,1.75229 -21.56783,1.71442 -10.15898,-0.0191 -18.94559,-0.12958 -19.5258,-0.2456 z"
           style="fill:#ffb601;fill-opacity:1;stroke:#fdfdfd;stroke-width:4;stroke-miterlimit:4;stroke-dasharray:none;stroke-opacity:1" />
        <path
           inkscape:connector-curvature="0"
           id="path4670"
           d="m 129.83706,210.80169 c -3.07231,-1.54412 -4.2315,-4.94769 -2.81028,-8.2514 l 0.67812,-1.57633 -0.75978,-0.81499 c -1.19974,-1.28692 -1.5407,-2.18989 -1.55963,-4.13046 -0.0135,-1.38635 0.15435,-2.11077 0.71924,-3.10375 0.65948,-1.15926 0.69216,-1.36504 0.31113,-1.95915 -1.76744,-2.75586 -1.9575,-4.62029 -0.72346,-7.09669 l 0.78635,-1.57799 -0.8617,-1.24344 c -0.76475,-1.10352 -0.8617,-1.50315 -0.8617,-3.55176 0,-1.9996 0.10815,-2.47177 0.80863,-3.53026 0.52696,-0.79629 1.36124,-1.4973 2.39509,-2.01249 1.56581,-0.78028 1.67173,-0.79056 8.14114,-0.79056 6.43174,0 6.56348,0.0126 7.02389,0.66988 0.61768,0.88186 0.59268,1.53619 -0.082,2.14677 -0.47327,0.42831 -1.38305,0.49883 -6.43528,0.49883 -3.52906,0 -6.26765,0.13371 -6.84243,0.33408 -1.54449,0.53842 -2.23807,2.39013 -1.50109,4.00762 0.70753,1.55287 1.56205,1.68644 10.78877,1.68644 9.00613,0 10.14645,-0.15361 10.8462,-1.46111 0.46609,-0.87089 1.42871,-1.0869 2.29989,-0.51608 1.00635,0.65939 0.92959,1.33192 -0.33771,2.95854 -1.76692,2.26793 -2.11737,2.33413 -12.35722,2.33413 -9.78181,0 -10.26349,0.0779 -10.96616,1.77432 -0.49295,1.19009 -0.15669,2.59089 0.80318,3.34593 0.73321,0.57674 1.20937,0.60648 9.70979,0.60648 h 8.93877 l 1.11842,-1.05492 c 1.17733,-1.11049 1.68861,-1.25416 2.64387,-0.74292 1.00972,0.54039 0.71388,1.70555 -0.84868,3.34252 -1.00716,1.05511 -1.78918,1.58258 -2.63731,1.77884 -0.6631,0.15344 -4.89123,0.28222 -9.39585,0.28618 l -8.19022,0.007 -0.92734,0.78031 c -0.77214,0.64971 -0.92735,0.99836 -0.92735,2.08306 0,1.0847 0.15521,1.43335 0.92735,2.08306 l 0.92734,0.78031 h 7.66189 7.66189 l 1.16767,-1.05493 c 1.27291,-1.14999 2.14133,-1.32148 2.89176,-0.57105 0.82996,0.82995 0.0834,2.31289 -1.99065,3.95415 l -1.24766,0.9873 -6.81459,0.002 c -3.74803,9.1e-4 -7.31705,0.14123 -7.93117,0.31179 -2.71371,0.75369 -3.16039,3.96252 -0.73177,5.2569 0.81004,0.43173 1.78725,0.48926 6.8809,0.40513 l 5.93678,-0.0981 0.99559,-0.93598 c 1.28331,-1.20647 1.83469,-1.38179 2.61871,-0.83264 1.29992,0.9105 0.50039,2.72214 -1.88673,4.27515 -1.24055,0.80707 -1.25882,0.80916 -7.8744,0.89898 -6.61278,0.0898 -6.6352,0.0879 -8.1802,-0.68861 z"
           style="fill:#ffffff;fill-opacity:1;stroke-width:0.30140713" />
      </g>
    </g>
  </g>
  <g
     inkscape:groupmode="layer"
     id="layer6"
     inkscape:label="eye"
     transform="translate(-46.582233,-76.051564)">
    <path
       style="fill:#ffffff;fill-opacity:1;stroke:#ffffff;stroke-width:2;stroke-linecap:butt;stroke-linejoin:miter;stroke-miterlimit:4;stroke-dasharray:none;stroke-opacity:1"
       d="m 95.548856,132.89651 c 0,0 1.069078,-13.36348 14.833454,-13.89802 0,0 8.15173,1.20272 9.08717,11.22532 0,0 -13.89802,-9.88897 -23.920624,2.6727 z"
       id="path4550"
       inkscape:connector-curvature="0" />
  </g>
</svg>
