<?xml version="1.0" encoding="UTF-8" standalone="no"?>
<!-- Created with Inkscape (http://www.inkscape.org/) -->

<svg
   xmlns:dc="http://purl.org/dc/elements/1.1/"
   xmlns:cc="http://creativecommons.org/ns#"
   xmlns:rdf="http://www.w3.org/1999/02/22-rdf-syntax-ns#"
   xmlns:svg="http://www.w3.org/2000/svg"
   xmlns="http://www.w3.org/2000/svg"
   xmlns:sodipodi="http://sodipodi.sourceforge.net/DTD/sodipodi-0.dtd"
   xmlns:inkscape="http://www.inkscape.org/namespaces/inkscape"
   width="169.18875mm"
   height="151.12132mm"
   viewBox="0 0 169.18875 151.12132"
   version="1.1"
   id="svg1490"
   inkscape:version="0.92.4 (5da689c313, 2019-01-14)"
   sodipodi:docname="confused.svg"
   inkscape:export-filename="D:\Peti\Fresh\emojis\confused.png"
   inkscape:export-xdpi="1195"
   inkscape:export-ydpi="1195">
  <defs
     id="defs1484" />
  <sodipodi:namedview
     id="base"
     pagecolor="#ffffff"
     bordercolor="#666666"
     borderopacity="1.0"
     inkscape:pageopacity="0.0"
     inkscape:pageshadow="2"
     inkscape:zoom="0.49497475"
     inkscape:cx="-179.41214"
     inkscape:cy="245.67006"
     inkscape:document-units="mm"
     inkscape:current-layer="layer17"
     showgrid="false"
     inkscape:window-width="1920"
     inkscape:window-height="1001"
     inkscape:window-x="-9"
     inkscape:window-y="-9"
     inkscape:window-maximized="1"
     showguides="false"
     fit-margin-top="0"
     fit-margin-left="0"
     fit-margin-right="0"
     fit-margin-bottom="0" />
  <metadata
     id="metadata1487">
    <rdf:RDF>
      <cc:Work
         rdf:about="">
        <dc:format>image/svg+xml</dc:format>
        <dc:type
           rdf:resource="http://purl.org/dc/dcmitype/StillImage" />
        <dc:title />
      </cc:Work>
    </rdf:RDF>
  </metadata>
  <g
     inkscape:groupmode="layer"
     id="layer14"
     inkscape:label="face"
     style="display:inline;opacity:1"
     transform="translate(-11.544659,-58.642848)">
    <path
       style="fill:#000000;fill-opacity:1;stroke:#ffffff;stroke-width:4;stroke-linecap:butt;stroke-linejoin:miter;stroke-miterlimit:4;stroke-dasharray:none;stroke-opacity:1"
       d="m 55.365719,148.64899 c 0,0 -15.483209,7.831 -26.338638,-1.32209 0,0 6.618973,19.25999 15.84058,27.4632 0,0 7.447128,-5.28904 13.518834,-6.8963 0,0 -9.62047,7.52321 -10.627328,12.07511 0,0 11.717956,12.93366 16.52822,13.87213 0,0 5.463734,-8.08172 8.84154,-9.94354 l -3.871682,13.05156 c 0,0 13.188366,9.08849 16.095047,10.66909 0,0 39.101328,-11.04179 72.742748,-6.67628 0,0 7.93347,-7.62959 9.60518,-22.7253 l 2.38983,-17.08289 -8.13483,9.47999 -9.94728,-2.06691 -38.89239,5.04226 -12.07501,3.47288 16.1025,-12.2803 c 0,0 11.33414,1.56155 24.01325,-7.46251 0,0 4.55568,-1.06771 5.41061,2.16192 l 5.11419,-5.22444 c 0,0 10.76414,-6.85829 18.42787,-8.19578 l 1.84284,9.05056 6.69095,-15.45669 c 0,0 -6.19727,-28.63353 -29.34047,-30.93973 0,0 3.69705,11.87743 -14.39266,18.73957 l -2.17338,-2.46591 c 0,0 4.77225,-1.81622 5.06098,-9.08101 0,0 -4.81402,5.83618 -14.36994,6.29218 0,0 -12.90727,-21.60428 -35.332347,-21.19759 0,0 7.192602,2.10491 7.998186,13.50362 0,0 -12.481596,-0.15191 -16.801684,3.89466 0,0 -10.380403,4.1302 -20.627862,1.45157 0,0 -20.304973,-10.38411 -26.920014,-8.21831 0,0 -9.179752,1.87704 -14.974067,7.14329 0,0 12.964137,-0.11407 18.017622,9.05426 0,0 11.208846,18.32147 20.578605,20.81773 z"
       id="path2048"
       inkscape:connector-curvature="0" />
  </g>
  <g
     inkscape:groupmode="layer"
     id="layer17"
     inkscape:label="eye2"
     style="display:inline"
     transform="translate(-11.544659,-58.642848)">
    <ellipse
       style="opacity:1;fill:#ffffff;fill-opacity:1;stroke:#ffffff;stroke-width:3.95344377;stroke-linecap:round;stroke-linejoin:round;stroke-miterlimit:4;stroke-dasharray:none;stroke-opacity:1"
       id="path2111"
       cx="61.386745"
       cy="160.87431"
       rx="17.729885"
       ry="14.589467"
       transform="rotate(-14.826827)" />
  </g>
  <g
     inkscape:groupmode="layer"
     id="layer15"
     inkscape:label="eye"
     transform="translate(-11.544659,-58.642848)"
     style="display:inline">
    <ellipse
       style="opacity:1;fill:none;fill-opacity:1;stroke:#000000;stroke-width:1.97512555;stroke-linecap:round;stroke-linejoin:round;stroke-miterlimit:4;stroke-dasharray:none;stroke-opacity:1"
       id="path2050"
       cx="60.0079"
       cy="162.4111"
       rx="15.692134"
       ry="13.311028"
       transform="rotate(-14.826827)" />
    <ellipse
       style="opacity:1;fill:none;fill-opacity:1;stroke:#000000;stroke-width:1.95128882;stroke-linecap:round;stroke-linejoin:round;stroke-miterlimit:4;stroke-dasharray:none;stroke-opacity:1"
       id="path2050-2"
       cx="63.946766"
       cy="161.24753"
       rx="16.145208"
       ry="14.000338"
       transform="rotate(-14.826827)" />
    <ellipse
       style="opacity:1;fill:none;fill-opacity:1;stroke:#000000;stroke-width:2;stroke-linecap:round;stroke-linejoin:round;stroke-miterlimit:4;stroke-dasharray:none;stroke-opacity:1"
       id="path2050-5"
       cx="59.181789"
       cy="159.47115"
       rx="16.104919"
       ry="13.298591"
       transform="rotate(-14.826827)" />
  </g>
  <g
     inkscape:groupmode="layer"
     id="layer18"
     inkscape:label="questions"
     transform="translate(5.8818962e-8,40.353586)">
    <flowRoot
       xml:space="preserve"
       id="flowRoot2130"
       style="font-style:normal;font-weight:normal;font-size:40px;line-height:1.25;font-family:sans-serif;letter-spacing:0px;word-spacing:0px;fill:#000000;fill-opacity:1;stroke:none"
       transform="matrix(0.37103957,-0.33976759,0.30036421,0.32800952,61.384621,42.476759)"
       inkscape:transform-center-x="27.796031"
       inkscape:transform-center-y="-7.4835461"><flowRegion
         id="flowRegion2132"><rect
           id="rect2134"
           width="187.88837"
           height="177.78685"
           x="24.243662"
           y="-159.15756" /></flowRegion><flowPara
         id="flowPara2136"
         style="font-style:normal;font-variant:normal;font-weight:bold;font-stretch:normal;font-size:96px;font-family:sans-serif;-inkscape-font-specification:'sans-serif Bold';fill:#ffffff">?</flowPara></flowRoot>    <flowRoot
       xml:space="preserve"
       id="flowRoot2130-6"
       style="font-style:normal;font-weight:normal;font-size:40px;line-height:1.25;font-family:sans-serif;letter-spacing:0px;word-spacing:0px;fill:#000000;fill-opacity:1;stroke:none"
       transform="matrix(0.5026549,-0.02122362,0.01876229,0.4443612,61.242113,24.750877)"
       inkscape:transform-center-x="16.456652"
       inkscape:transform-center-y="-23.61782"><flowRegion
         id="flowRegion2132-6"><rect
           id="rect2134-2"
           width="187.88837"
           height="177.78685"
           x="24.243662"
           y="-159.15756" /></flowRegion><flowPara
         id="flowPara2136-3"
         style="font-style:normal;font-variant:normal;font-weight:bold;font-stretch:normal;font-size:96px;font-family:sans-serif;-inkscape-font-specification:'sans-serif Bold';fill:#ffffff">?</flowPara></flowRoot>  </g>
</svg>
