<?xml version="1.0" encoding="UTF-8" standalone="no"?>
<!-- Created with Inkscape (http://www.inkscape.org/) -->

<svg
   xmlns:dc="http://purl.org/dc/elements/1.1/"
   xmlns:cc="http://creativecommons.org/ns#"
   xmlns:rdf="http://www.w3.org/1999/02/22-rdf-syntax-ns#"
   xmlns:svg="http://www.w3.org/2000/svg"
   xmlns="http://www.w3.org/2000/svg"
   xmlns:sodipodi="http://sodipodi.sourceforge.net/DTD/sodipodi-0.dtd"
   xmlns:inkscape="http://www.inkscape.org/namespaces/inkscape"
   width="177.32445mm"
   height="122.60211mm"
   viewBox="0 0 177.32445 122.60212"
   version="1.1"
   id="svg8"
   inkscape:version="0.92.4 (5da689c313, 2019-01-14)"
   sodipodi:docname="cry.svg"
   inkscape:export-filename="D:\Peti\Fresh\emojis\cry2.png"
   inkscape:export-xdpi="1195"
   inkscape:export-ydpi="1195">
  <defs
     id="defs2" />
  <sodipodi:namedview
     id="base"
     pagecolor="#ffffff"
     bordercolor="#666666"
     borderopacity="1.0"
     inkscape:pageopacity="0.0"
     inkscape:pageshadow="2"
     inkscape:zoom="0.7"
     inkscape:cx="-78.166155"
     inkscape:cy="216.52428"
     inkscape:document-units="mm"
     inkscape:current-layer="layer2"
     showgrid="false"
     inkscape:window-width="1920"
     inkscape:window-height="1001"
     inkscape:window-x="-9"
     inkscape:window-y="-9"
     inkscape:window-maximized="1"
     inkscape:lockguides="true"
     fit-margin-top="0"
     fit-margin-left="0"
     fit-margin-right="0"
     fit-margin-bottom="0" />
  <metadata
     id="metadata5">
    <rdf:RDF>
      <cc:Work
         rdf:about="">
        <dc:format>image/svg+xml</dc:format>
        <dc:type
           rdf:resource="http://purl.org/dc/dcmitype/StillImage" />
        <dc:title />
      </cc:Work>
    </rdf:RDF>
  </metadata>
  <g
     inkscape:groupmode="layer"
     id="layer2"
     inkscape:label="face"
     style="display:inline;opacity:1"
     transform="translate(-9.7724113,-71.663649)">
    <path
       style="fill:#000000;fill-opacity:1;stroke:#ffffff;stroke-width:4;stroke-linecap:butt;stroke-linejoin:miter;stroke-miterlimit:4;stroke-dasharray:none;stroke-opacity:1"
       d="m 185.01934,111.60268 c 0,0 -5.66964,-27.592266 -31.93898,-31.183037 0,0 6.42559,11.339285 -11.33929,18.898809 l -3.2128,-2.267857 c 0,0 4.15774,-4.724702 5.29167,-9.260417 0,0 -2.45684,3.590774 -14.93006,6.425596 0,0 -18.70982,-19.276786 -35.340773,-20.221727 0,0 8.315473,7.181548 7.748513,13.040179 0,0 -13.229168,3.96875 -19.087798,4.535714 0,0 -37.608631,-8.504464 -65.956846,-2.834821 0,0 36.663691,16.630951 45.735119,34.962801 0,0 -7.9375,6.2366 -26.080357,-2.83482 0,0 6.803572,18.33184 17.764881,29.10416 0,0 10.205357,-7.37053 12.284226,-8.88244 0,0 -6.614583,6.99256 -8.504464,12.28423 0,0 5.669643,8.69345 13.985119,13.60714 0,0 5.102679,-7.37054 9.260417,-11.33929 0,0 -4.724703,7.37054 -4.157738,15.68602 0,0 13.607143,12.85119 39.309521,13.22916 0,0 35.90774,1.7009 46.68006,7.37054 0,0 13.79613,-9.82738 17.57589,-25.89137 0,0 -0.56696,-7.37054 -2.83482,-12.85119 0,0 -2.45684,3.77976 -6.80357,6.80357 0,0 -34.77381,-16.25298 -67.84672,-12.09524 0,0 14.55208,-17.00893 34.58482,-20.22172 0,0 7.9375,0.37797 10.96131,2.64583 l 6.61458,-8.31548 c 0,0 10.58333,-2.64583 13.79613,-3.02381 0,0 9.07143,2.64584 10.58333,7.74852 z"
       id="path850"
       inkscape:connector-curvature="0" />
  </g>
  <g
     inkscape:groupmode="layer"
     id="layer6"
     inkscape:label="tear"
     transform="translate(-9.7724113,-71.663649)">
    <path
       style="fill:#5cd3ff;fill-opacity:1;stroke:#5cd3ff;stroke-width:2;stroke-linecap:butt;stroke-linejoin:miter;stroke-miterlimit:4;stroke-dasharray:none;stroke-opacity:1"
       d="m 103.89204,111.6446 c 0,0 -17.375786,33.92058 -7.170433,71.15123 0,0 -7.52316,1.25808 -12.66186,-5.07581 0,0 0.606956,-41.5489 11.379241,-61.01467 0,0 6.941142,-6.19468 8.453052,-5.06075 z"
       id="path871"
       inkscape:connector-curvature="0"
       sodipodi:nodetypes="ccccc" />
  </g>
  <g
     inkscape:groupmode="layer"
     id="layer4"
     inkscape:label="eye"
     transform="translate(-9.7724113,-71.663649)">
    <path
       style="fill:#ffffff;fill-opacity:1;stroke:#ffffff;stroke-width:2;stroke-linecap:butt;stroke-linejoin:miter;stroke-miterlimit:4;stroke-dasharray:none;stroke-opacity:1"
       d="m 95.438988,116.70535 c 0,0 10.772322,-14.55208 20.410712,-13.60714 0,0 6.4256,7.18155 6.80357,7.9375 0,0 -6.2366,-7.74852 -27.214282,5.66964 z"
       id="path864"
       inkscape:connector-curvature="0" />
  </g>
</svg>
