<?xml version="1.0" encoding="UTF-8" standalone="no"?>
<!-- Created with Inkscape (http://www.inkscape.org/) -->

<svg
   xmlns:dc="http://purl.org/dc/elements/1.1/"
   xmlns:cc="http://creativecommons.org/ns#"
   xmlns:rdf="http://www.w3.org/1999/02/22-rdf-syntax-ns#"
   xmlns:svg="http://www.w3.org/2000/svg"
   xmlns="http://www.w3.org/2000/svg"
   xmlns:sodipodi="http://sodipodi.sourceforge.net/DTD/sodipodi-0.dtd"
   xmlns:inkscape="http://www.inkscape.org/namespaces/inkscape"
   width="130.46642mm"
   height="169.69403mm"
   viewBox="0 0 130.46642 169.69403"
   version="1.1"
   id="svg886"
   inkscape:version="0.92.4 (5da689c313, 2019-01-14)"
   sodipodi:docname="facepalm.svg"
   inkscape:export-filename="D:\Peti\Fresh\emojis\facepalm.png"
   inkscape:export-xdpi="1195"
   inkscape:export-ydpi="1195">
  <defs
     id="defs880" />
  <sodipodi:namedview
     id="base"
     pagecolor="#ffffff"
     bordercolor="#666666"
     borderopacity="1.0"
     inkscape:pageopacity="0.0"
     inkscape:pageshadow="2"
     inkscape:zoom="0.35"
     inkscape:cx="-1369.9591"
     inkscape:cy="-151.96455"
     inkscape:document-units="mm"
     inkscape:current-layer="layer10"
     showgrid="false"
     inkscape:window-width="1920"
     inkscape:window-height="1001"
     inkscape:window-x="-9"
     inkscape:window-y="-9"
     inkscape:window-maximized="1"
     fit-margin-top="0"
     fit-margin-left="0"
     fit-margin-right="0"
     fit-margin-bottom="0" />
  <metadata
     id="metadata883">
    <rdf:RDF>
      <cc:Work
         rdf:about="">
        <dc:format>image/svg+xml</dc:format>
        <dc:type
           rdf:resource="http://purl.org/dc/dcmitype/StillImage" />
        <dc:title />
      </cc:Work>
    </rdf:RDF>
  </metadata>
  <g
     inkscape:groupmode="layer"
     id="layer9"
     inkscape:label="face"
     style="display:inline"
     transform="translate(-40.368241,-68.860226)">
    <path
       style="fill:#000000;fill-opacity:1;stroke:#ffffff;stroke-width:4;stroke-linecap:butt;stroke-linejoin:miter;stroke-miterlimit:4;stroke-dasharray:none;stroke-opacity:1"
       d="m 137.77232,169.81101 c 0,0 12.09524,7.18155 22.86756,-4.91369 0,0 15.49702,17.76488 3.96875,39.49851 l -14.17411,8.88244 4.34673,-8.50446 c 0,0 -20.03274,-6.99256 -25.51339,-1.51191 l -2.07887,-5.66964 c 0,0 -7.37054,-4.7247 -23.43453,-8.69345 0,0 -8.50446,-0.37798 -14.552079,1.70089 0,0 15.874999,1.60641 19.843749,5.85863 l 20.5997,16.06399 c 0,0 4.34673,6.4256 19.27679,3.59078 0,0 -3.40179,6.2366 -14.3631,11.90625 0,0 -13.22916,5.48065 -15.11904,7.74851 0,0 -28.348218,-22.67857 -68.035718,-33.26191 0,0 -5.480655,-10.77232 -5.480655,-17.76488 l 8.504464,-10.77232 c 0,0 -6.425595,1.32292 -9.449404,3.2128 0,0 -4.346726,-8.88244 -1.511905,-20.03274 0,0 10.961309,-2.07887 12.284226,-2.07887 0,0 -4.724702,-2.26786 -12.095238,-1.70089 0,0 -4.535714,-19.46578 3.96875,-31.75 0,0 2.078869,13.98512 18.331845,17.76488 0,0 -9.260416,-39.498514 8.126488,-64.255954 0,0 0.377977,56.129464 37.419647,56.507444 l 28.72619,32.12797 z"
       id="path1444"
       inkscape:connector-curvature="0"
       sodipodi:nodetypes="ccccccccccccccccccccccccccc" />
  </g>
  <g
     inkscape:groupmode="layer"
     id="layer11"
     inkscape:label="eye"
     transform="translate(-40.368241,-68.860226)">
    <path
       style="fill:#ffffff;fill-opacity:1;stroke:#ffffff;stroke-width:2;stroke-linecap:butt;stroke-linejoin:miter;stroke-miterlimit:4;stroke-dasharray:none;stroke-opacity:1"
       d="m 102.03014,153.00854 c 0,0 3.94223,10.82442 10.7576,10.7576 0,0 3.54132,0.13364 7.14946,-2.47224 0,0 -1.13589,5.47902 -9.42125,6.1472 0,0 -11.35896,-0.66818 -8.48581,-14.43256 z"
       id="path1449"
       inkscape:connector-curvature="0" />
  </g>
  <g
     inkscape:groupmode="layer"
     id="layer12"
     inkscape:label="tear"
     style="display:inline"
     transform="translate(-40.368241,-68.860226)">
    <path
       style="fill:#4dd7e7;fill-opacity:1;stroke:#ffffff;stroke-width:2.97722697;stroke-linecap:butt;stroke-linejoin:miter;stroke-miterlimit:4;stroke-dasharray:none;stroke-opacity:1"
       d="m 78.550753,134.53187 c 0,0 -1.042177,9.22715 -3.300226,15.72033 0,0 -3.995008,11.50547 -0.694783,15.72033 0,0 3.99501,3.64531 6.947843,-2.73396 0,0 0.955328,-5.01228 -0.694784,-12.75854 0,0 -1.042178,-2.50613 -2.25805,-15.94816 z"
       id="path1452"
       inkscape:connector-curvature="0"
       sodipodi:nodetypes="cccccc" />
  </g>
  <g
     inkscape:groupmode="layer"
     id="layer10"
     inkscape:label="hand"
     transform="translate(-40.368241,-68.860226)"
     style="display:inline">
    <path
       style="fill:#ffb601;fill-opacity:1;stroke:#ffffff;stroke-width:4;stroke-linecap:butt;stroke-linejoin:miter;stroke-miterlimit:4;stroke-dasharray:none;stroke-opacity:1"
       d="m 121.74127,128.6202 c 0,0 -9.08716,-14.56619 -10.28988,-17.77343 l -2.07134,-3.20723 c 0,0 -4.34313,-1.40317 -5.07812,6.34765 0,0 -1.5368,9.15398 5.21176,21.24793 0,0 9.35443,17.57297 17.90706,24.72243 0,0 10.69078,8.75308 20.3793,5.34539 0,0 8.0849,-2.80633 3.34087,-14.96709 0,0 -8.95353,-16.77117 -10.62397,-22.71791 0,0 -6.13495,-15.81006 -7.86549,-30.378357 0,0 -1.51387,-9.560111 -1.92902,-14.268601 0,0 -0.32065,-2.645834 -1.73806,-2.929316 0,0 -1.98438,-0.566964 -2.55134,1.606399 l -0.17753,-4.351474 c -0.0644,-1.578621 -3.88572,-1.696145 -4.54718,1.422159 0,0 -2.83482,-5.102679 -6.2366,-1.417411 0,0 -3.23573,2.357603 -4.22931,13.607143 0,0 -0.083,16.674838 3.18987,25.607888"
       id="path1454"
       inkscape:connector-curvature="0"
       sodipodi:nodetypes="cccccccccccccscccc" />
    <path
       style="fill:none;stroke:#ffffff;stroke-width:2;stroke-linecap:butt;stroke-linejoin:miter;stroke-miterlimit:4;stroke-dasharray:none;stroke-opacity:1"
       d="m 121.70833,78.71875 c 0,0 0.003,3.1676 0.18756,7.790676 0.39134,9.8221 1.59887,26.213994 5.3244,32.756334"
       id="path1456"
       inkscape:connector-curvature="0"
       sodipodi:nodetypes="csc" />
    <path
       style="fill:none;stroke:#ffffff;stroke-width:2;stroke-linecap:butt;stroke-linejoin:miter;stroke-miterlimit:4;stroke-dasharray:none;stroke-opacity:1"
       d="m 126.43304,81.648063 c 0,0 0.65362,22.717427 3.86085,33.007297"
       id="path1458"
       inkscape:connector-curvature="0" />
  </g>
</svg>
