<?xml version="1.0" encoding="UTF-8" standalone="no"?>
<!-- Created with Inkscape (http://www.inkscape.org/) -->

<svg
   xmlns:dc="http://purl.org/dc/elements/1.1/"
   xmlns:cc="http://creativecommons.org/ns#"
   xmlns:rdf="http://www.w3.org/1999/02/22-rdf-syntax-ns#"
   xmlns:svg="http://www.w3.org/2000/svg"
   xmlns="http://www.w3.org/2000/svg"
   xmlns:sodipodi="http://sodipodi.sourceforge.net/DTD/sodipodi-0.dtd"
   xmlns:inkscape="http://www.inkscape.org/namespaces/inkscape"
   width="129.84578mm"
   height="119.93172mm"
   viewBox="0 0 129.84578 119.93172"
   version="1.1"
   id="svg4684"
   inkscape:version="0.92.4 (5da689c313, 2019-01-14)"
   sodipodi:docname="glasses.svg"
   inkscape:export-filename="D:\Peti\Fresh\emojis\glasses.png"
   inkscape:export-xdpi="1195"
   inkscape:export-ydpi="1195">
  <defs
     id="defs4678" />
  <sodipodi:namedview
     id="base"
     pagecolor="#ffffff"
     bordercolor="#666666"
     borderopacity="1.0"
     inkscape:pageopacity="0.0"
     inkscape:pageshadow="2"
     inkscape:zoom="0.175"
     inkscape:cx="1733.3691"
     inkscape:cy="65.11166"
     inkscape:document-units="mm"
     inkscape:current-layer="layer10"
     showgrid="false"
     inkscape:window-width="1920"
     inkscape:window-height="1001"
     inkscape:window-x="-9"
     inkscape:window-y="-9"
     inkscape:window-maximized="1"
     fit-margin-top="0"
     fit-margin-left="0"
     fit-margin-right="0"
     fit-margin-bottom="0" />
  <metadata
     id="metadata4681">
    <rdf:RDF>
      <cc:Work
         rdf:about="">
        <dc:format>image/svg+xml</dc:format>
        <dc:type
           rdf:resource="http://purl.org/dc/dcmitype/StillImage" />
        <dc:title />
      </cc:Work>
    </rdf:RDF>
  </metadata>
  <g
     inkscape:groupmode="layer"
     id="layer10"
     inkscape:label="face"
     style="display:inline"
     transform="translate(-47.525028,-102.02042)">
    <path
       style="display:inline;fill:#070707;fill-opacity:1;stroke:#ffffff;stroke-width:4;stroke-linecap:butt;stroke-linejoin:miter;stroke-miterlimit:4;stroke-dasharray:none;stroke-opacity:1"
       d="m 130.96661,141.91826 c 0,0 7.74851,1.51191 12.47321,-2.83482 0,0 0.35854,4.41393 -3.6505,5.88391 l 0.93544,2.00453 c 0,0 14.83346,-2.40543 13.36348,-13.89802 0,0 19.64431,4.81085 21.24793,28.33057 l -5.61266,10.42351 0.4009,21.11429 c 0,0 -38.48681,0.66818 -69.89098,15.63528 l -14.566196,-6.01356 c 0,0 1.069078,-8.68627 2.405428,-11.62624 0,0 -6.1472,3.34087 -8.018087,6.54811 0,0 -10.423511,-4.67722 -13.497111,-14.03165 0,0 2.405426,-4.94449 8.552625,-8.8199 0,0 -9.621703,2.27179 -10.824416,5.07812 0,0 -11.759859,-9.6217 -11.22532,-22.71791 0,0 10.824416,7.34992 20.713388,2.80633 0,0 -23.920622,-17.10525 -24.187892,-50.24667 0,0 18.307963,31.53781 41.159507,26.99422 0,0 13.229834,-4.14267 18.441594,-2.13815 0,0 1.20272,-9.08716 -5.07811,-12.2944 0,0 10.41788,-1.95551 26.85777,19.80245 z"
       id="path4544"
       inkscape:connector-curvature="0" />
  </g>
  <g
     inkscape:groupmode="layer"
     id="layer12"
     inkscape:label="eye"
     style="display:inline"
     transform="translate(-47.525028,-102.02042)">
    <path
       style="fill:#ffffff;fill-opacity:1;stroke:#ffffff;stroke-width:2;stroke-linecap:butt;stroke-linejoin:miter;stroke-miterlimit:4;stroke-dasharray:none;stroke-opacity:1"
       d="m 122.2753,154.69196 c 0,0 -0.37798,-7.37053 -3.77977,-7.55952 0,0 -9.18229,-2.34244 -19.2049,9.81833 0,0 19.64329,-4.38398 22.98467,-2.25881 z"
       id="path5841"
       inkscape:connector-curvature="0" />
  </g>
  <g
     inkscape:groupmode="layer"
     id="layer13"
     inkscape:label="tongue"
     style="display:inline"
     transform="translate(-47.525028,-102.02042)">
    <path
       style="fill:#00c8bd;fill-opacity:1;stroke:none;stroke-width:0.26458332px;stroke-linecap:butt;stroke-linejoin:miter;stroke-opacity:1"
       d="m 121.8749,175.65963 c 0,0 -22.317003,30.60236 4.00905,44.23311 0,0 9.24372,4.53016 14.2072,0.15263 0,0 3.56622,-4.02804 0.89352,-15.92153 l -6.81537,-18.57523 c 0,0 -3.34087,-8.01809 6.94901,-12.56167 z"
       id="path5844"
       inkscape:connector-curvature="0"
       sodipodi:nodetypes="ccccccc" />
  </g>
  <g
     inkscape:groupmode="layer"
     id="layer11"
     inkscape:label="mouth"
     style="display:inline"
     transform="translate(-47.525028,-102.02042)">
    <path
       style="display:inline;fill:none;stroke:#ffffff;stroke-width:4;stroke-linecap:butt;stroke-linejoin:miter;stroke-miterlimit:4;stroke-dasharray:none;stroke-opacity:1"
       d="m 169.72351,171.82794 -1.73726,-6.41447 c 0,0 -8.01808,3.60814 -14.96709,5.07812 l -5.61266,5.47903 -5.21175,-3.0736 c 0,0 -29.53329,7.21628 -40.62497,1.60362"
       id="path4547"
       inkscape:connector-curvature="0" />
  </g>
  <g
     inkscape:groupmode="layer"
     id="layer3"
     inkscape:label="glass1"
     transform="translate(-6.1838692e-8,-1.7214261e-6)"
     style="display:inline">
    <path
       style="opacity:0.6;fill:none;stroke:#ffffff;stroke-width:2;stroke-linecap:butt;stroke-linejoin:miter;stroke-miterlimit:4;stroke-dasharray:none;stroke-opacity:1"
       d="M 80.213763,52.166924 95.965998,57.30349"
       id="path841"
       inkscape:connector-curvature="0" />
    <path
       style="opacity:0.6;fill:none;stroke:#ffffff;stroke-width:4;stroke-linecap:butt;stroke-linejoin:miter;stroke-miterlimit:4;stroke-dasharray:none;stroke-opacity:1"
       d="M 79.954137,46.245564 95.706372,51.38213"
       id="path841-0"
       inkscape:connector-curvature="0" />
  </g>
  <g
     inkscape:groupmode="layer"
     id="layer2"
     inkscape:label="glass"
     sodipodi:insensitive="true"
     transform="translate(-6.1838692e-8,-1.7214261e-6)"
     style="display:inline">
    <ellipse
       style="opacity:0.46600001;fill:#98d6dd;fill-opacity:1;stroke:none;stroke-width:4.65136385;stroke-linecap:round;stroke-linejoin:round;stroke-miterlimit:4;stroke-dasharray:none;stroke-opacity:1"
       id="path838"
       cx="87.550407"
       cy="52.182175"
       rx="7.1326313"
       ry="12.284339" />
  </g>
  <g
     inkscape:groupmode="layer"
     id="layer14"
     inkscape:label="glasses"
     transform="translate(-47.525028,-102.02042)">
    <path
       style="fill:none;stroke:#ff3d3d;stroke-width:5;stroke-linecap:butt;stroke-linejoin:miter;stroke-miterlimit:4;stroke-dasharray:none;stroke-opacity:1"
       d="m 126.50261,157.03461 c 0,0 -59.411082,-11.23351 -59.343452,2.57721"
       id="path6447"
       inkscape:connector-curvature="0"
       sodipodi:nodetypes="cc" />
    <ellipse
       style="opacity:1;fill:none;fill-opacity:1;stroke:#ff3d3d;stroke-width:5;stroke-linecap:round;stroke-linejoin:round;stroke-miterlimit:4;stroke-dasharray:none;stroke-opacity:1"
       id="path835"
       cx="135.12102"
       cy="154.48621"
       rx="8.2209816"
       ry="13.512648" />
  </g>
</svg>
