<?xml version="1.0" encoding="UTF-8" standalone="no"?>
<!-- Created with Inkscape (http://www.inkscape.org/) -->

<svg
   xmlns:dc="http://purl.org/dc/elements/1.1/"
   xmlns:cc="http://creativecommons.org/ns#"
   xmlns:rdf="http://www.w3.org/1999/02/22-rdf-syntax-ns#"
   xmlns:svg="http://www.w3.org/2000/svg"
   xmlns="http://www.w3.org/2000/svg"
   xmlns:sodipodi="http://sodipodi.sourceforge.net/DTD/sodipodi-0.dtd"
   xmlns:inkscape="http://www.inkscape.org/namespaces/inkscape"
   width="156.96939mm"
   height="133.12674mm"
   viewBox="0 0 156.96939 133.12674"
   version="1.1"
   id="svg8"
   inkscape:version="0.92.4 (5da689c313, 2019-01-14)"
   sodipodi:docname="gun.svg"
   inkscape:export-filename="D:\Peti\Fresh\emojis\gun.png"
   inkscape:export-xdpi="1195"
   inkscape:export-ydpi="1195">
  <defs
     id="defs2" />
  <sodipodi:namedview
     id="base"
     pagecolor="#ffffff"
     bordercolor="#666666"
     borderopacity="1.0"
     inkscape:pageopacity="0.0"
     inkscape:pageshadow="2"
     inkscape:zoom="0.7"
     inkscape:cx="-240.32033"
     inkscape:cy="224.32052"
     inkscape:document-units="mm"
     inkscape:current-layer="layer3"
     showgrid="false"
     inkscape:window-width="1920"
     inkscape:window-height="1001"
     inkscape:window-x="-9"
     inkscape:window-y="-9"
     inkscape:window-maximized="1"
     fit-margin-top="0"
     fit-margin-left="0"
     fit-margin-right="0"
     fit-margin-bottom="0" />
  <metadata
     id="metadata5">
    <rdf:RDF>
      <cc:Work
         rdf:about="">
        <dc:format>image/svg+xml</dc:format>
        <dc:type
           rdf:resource="http://purl.org/dc/dcmitype/StillImage" />
        <dc:title />
      </cc:Work>
    </rdf:RDF>
  </metadata>
  <g
     inkscape:groupmode="layer"
     id="layer3"
     inkscape:label="face"
     style="display:inline"
     transform="translate(-29.152255,-68.608996)">
    <path
       style="fill:#000000;fill-opacity:1;stroke:#ffffff;stroke-width:4;stroke-linecap:butt;stroke-linejoin:miter;stroke-miterlimit:4;stroke-dasharray:none;stroke-opacity:1"
       d="m 55.940475,120.10714 c 0,0 -12.095236,4.7247 -21.544642,-4.34673 0,0 2.078869,17.38691 11.150298,24.19048 0,0 4.91369,-3.77976 11.528274,-5.10268 0,0 -7.748512,5.48066 -9.071429,8.69346 0,0 7.181548,12.6622 11.339286,14.1741 0,0 6.236607,-4.91369 8.315476,-4.53571 0,0 -5.102678,7.74851 -5.480655,9.63839 l 15.686012,8.12649 c 0,0 45.735115,-18.33184 59.720235,-16.44196 l 13.60715,-24.00149 0.75595,1.88988 5.10268,-10.58333 c 0,0 -1.7009,-22.678576 -21.54465,-28.159231 0,0 1.07027,9.848051 -12.82775,14.124361 l -1.87088,-1.60361 c 0,0 4.67721,-3.74178 4.54358,-8.018089 0,0 -5.07812,5.211759 -10.02261,4.944489 0,0 -2.27179,-0.13364 -4.94449,-4.14268 0,0 -10.690776,-15.367998 -24.455157,-16.971615 0,0 6.815373,5.078121 5.345391,12.561668 0,0 -5.078121,-1.870887 -16.437076,2.53906 0,0 -5.078121,1.737252 -12.828938,-0.935443 0,0 -22.985179,-8.953529 -30.86963,-26.726953 0,0 4.973139,39.902293 24.803575,50.687143 z"
       id="path828"
       inkscape:connector-curvature="0" />
    <path
       style="fill:none;stroke:#ffffff;stroke-width:4;stroke-linecap:butt;stroke-linejoin:miter;stroke-miterlimit:4;stroke-dasharray:none;stroke-opacity:1"
       d="m 151.19048,130.50149 -1.98727,-4.62081 c 0,0 -7.14946,0.66818 -11.02486,3.67496 0,0 -4.00905,3.87541 -5.01131,5.7463 0,0 -3.40768,-4.14268 -7.81763,-2.80633 0,0 -13.09621,4.94448 -16.43708,5.47902 0,0 -16.837978,1.87089 -25.256968,-2.67269"
       id="path834"
       inkscape:connector-curvature="0" />
  </g>
  <g
     inkscape:groupmode="layer"
     id="layer4"
     inkscape:label="eye"
     transform="translate(-29.152255,-68.608996)">
    <path
       style="fill:#ffffff;fill-opacity:1;stroke:#ffffff;stroke-width:2;stroke-linecap:butt;stroke-linejoin:miter;stroke-miterlimit:4;stroke-dasharray:none;stroke-opacity:1"
       d="m 107.17508,114.85582 c 0,0 -5.07812,-9.62171 -13.497111,-9.35444 0,0 -9.354433,-0.93544 -15.100728,10.42351 0,0 5.746295,-5.07812 10.958051,-4.94448 0,0 -5.746295,4.00904 -6.280834,9.75534 0,0 13.764379,-7.88445 23.920622,-5.87993 z"
       id="path831"
       inkscape:connector-curvature="0" />
  </g>
  <g
     inkscape:groupmode="layer"
     id="layer6"
     inkscape:label="gun"
     style="opacity:1"
     transform="translate(-29.152255,-68.608996)">
    <path
       style="fill:#646a77;fill-opacity:1;stroke:#ffffff;stroke-width:4;stroke-linecap:butt;stroke-linejoin:miter;stroke-miterlimit:4;stroke-dasharray:none;stroke-opacity:1"
       d="m 92.87616,154.94624 13.49711,-14.56619 72.43004,-0.13363 -0.13363,21.38156 h -7.75082 l -0.13363,3.34087 -45.83673,-0.26727 -13.49711,27.52876 3.34087,7.48355 c 0,0 -24.321525,0.66817 -25.657875,-5.47903 0,0 -1.870884,-5.74629 0.935446,-12.16076 l 5.479025,-10.82441 c 0,0 4.810854,-11.35897 -2.672696,-16.30345 z"
       id="path850"
       inkscape:connector-curvature="0" />
    <path
       style="fill:none;stroke:#ffffff;stroke-width:2;stroke-linecap:butt;stroke-linejoin:miter;stroke-miterlimit:4;stroke-dasharray:none;stroke-opacity:1"
       d="m 100.22607,147.4627 78.44361,0.26727"
       id="path852"
       inkscape:connector-curvature="0" />
    <path
       style="fill:none;stroke:#ffffff;stroke-width:2;stroke-linecap:butt;stroke-linejoin:miter;stroke-miterlimit:4;stroke-dasharray:none;stroke-opacity:1"
       d="m 92.87616,154.94624 85.92715,-0.13363"
       id="path854"
       inkscape:connector-curvature="0" />
    <rect
       style="opacity:1;fill:#b0b3bc;fill-opacity:1;stroke:#ffffff;stroke-width:2;stroke-linecap:round;stroke-linejoin:round;stroke-miterlimit:4;stroke-dasharray:none;stroke-opacity:1"
       id="rect856"
       width="23.653353"
       height="5.8799295"
       x="122.00854"
       y="144.52274" />
    <rect
       style="opacity:1;fill:#b0b3bc;fill-opacity:1;stroke:#ffffff;stroke-width:4;stroke-linecap:round;stroke-linejoin:round;stroke-miterlimit:4;stroke-dasharray:none;stroke-opacity:1"
       id="rect860"
       width="5.2444196"
       height="13.040178"
       x="178.87723"
       y="145.66779" />
    <path
       style="fill:#969ba6;fill-opacity:1;stroke:#ffffff;stroke-width:4;stroke-linecap:butt;stroke-linejoin:miter;stroke-miterlimit:4;stroke-dasharray:none;stroke-opacity:1"
       d="m 178.80331,140.24642 0.0267,-5.63444 c 0,0 -6.75632,0.47247 -6.75632,5.66964 z"
       id="path864"
       inkscape:connector-curvature="0" />
  </g>
  <g
     inkscape:groupmode="layer"
     id="layer7"
     inkscape:label="gun detail"
     transform="translate(-29.152255,-68.608996)">
    <path
       style="fill:#8b919d;fill-opacity:1;stroke:#ffffff;stroke-width:0.99149472;stroke-linecap:butt;stroke-linejoin:miter;stroke-miterlimit:4;stroke-dasharray:none;stroke-opacity:1"
       d="m 94.610165,155.08763 82.592425,-0.26943 -0.13116,-7.09354 -30.88715,-0.40889 -0.0499,3.01602 -24.63149,-0.001 -0.0602,-2.94408 -19.28883,-0.16574 z"
       id="path867"
       inkscape:connector-curvature="0"
       sodipodi:nodetypes="ccccccccc" />
  </g>
</svg>
