<?xml version="1.0" encoding="UTF-8" standalone="no"?>
<!-- Created with Inkscape (http://www.inkscape.org/) -->

<svg
   xmlns:dc="http://purl.org/dc/elements/1.1/"
   xmlns:cc="http://creativecommons.org/ns#"
   xmlns:rdf="http://www.w3.org/1999/02/22-rdf-syntax-ns#"
   xmlns:svg="http://www.w3.org/2000/svg"
   xmlns="http://www.w3.org/2000/svg"
   xmlns:sodipodi="http://sodipodi.sourceforge.net/DTD/sodipodi-0.dtd"
   xmlns:inkscape="http://www.inkscape.org/namespaces/inkscape"
   width="174.91454mm"
   height="145.41731mm"
   viewBox="0 0 174.91454 145.41731"
   version="1.1"
   id="svg924"
   inkscape:version="0.92.4 (5da689c313, 2019-01-14)"
   sodipodi:docname="hearteyes.svg"
   inkscape:export-filename="D:\Peti\Fresh\emojis\hearteyes.png"
   inkscape:export-xdpi="254"
   inkscape:export-ydpi="254">
  <defs
     id="defs918" />
  <sodipodi:namedview
     id="base"
     pagecolor="#ffffff"
     bordercolor="#666666"
     borderopacity="1.0"
     inkscape:pageopacity="0.0"
     inkscape:pageshadow="2"
     inkscape:zoom="0.98994949"
     inkscape:cx="-21.355686"
     inkscape:cy="198.58217"
     inkscape:document-units="mm"
     inkscape:current-layer="layer10"
     showgrid="false"
     inkscape:window-width="1920"
     inkscape:window-height="1001"
     inkscape:window-x="-9"
     inkscape:window-y="-9"
     inkscape:window-maximized="1"
     fit-margin-top="0"
     fit-margin-left="0"
     fit-margin-right="0"
     fit-margin-bottom="0" />
  <metadata
     id="metadata921">
    <rdf:RDF>
      <cc:Work
         rdf:about="">
        <dc:format>image/svg+xml</dc:format>
        <dc:type
           rdf:resource="http://purl.org/dc/dcmitype/StillImage" />
        <dc:title />
      </cc:Work>
    </rdf:RDF>
  </metadata>
  <g
     inkscape:groupmode="layer"
     id="layer14"
     inkscape:label="puddle"
     transform="translate(-22.652511,-78.820991)">
    <path
       style="fill:#c4daf5;fill-opacity:1;stroke:none;stroke-width:0.26458332px;stroke-linecap:butt;stroke-linejoin:miter;stroke-opacity:1"
       d="m 81.784475,219.89274 c 0,0 47.306705,6.68174 77.374525,3.4745 0,0 40.09043,-2.67269 38.35318,-6.28083 0,0 -5.61266,-2.93996 -15.63527,-3.4745 0,0 6.01357,-1.60362 6.1472,-2.80633 0,0 3.87541,-4.94449 -43.96583,-4.54358 l -47.173076,0.66817 c 0,0 -6.92687,0.53672 -8.67501,2.47385 0,0 -0.377977,0.99219 9.874628,1.27567 0,0 2.598588,0.85044 0.141741,1.55915 0,0 -20.505455,4.86621 -16.442088,7.6539 z"
       id="path2187"
       inkscape:connector-curvature="0" />
  </g>
  <g
     inkscape:groupmode="layer"
     id="layer10"
     inkscape:label="face"
     transform="translate(-22.652511,-78.820991)">
    <path
       style="fill:#000000;fill-opacity:1;stroke:#ffffff;stroke-width:4;stroke-linecap:butt;stroke-linejoin:miter;stroke-miterlimit:4;stroke-dasharray:none;stroke-opacity:1"
       d="m 48.108515,136.23738 c 0,0 -25.925145,-16.97162 -10.690781,-50.647578 0,0 4.543582,26.459688 26.058779,27.261498 l 15.902537,-1.60362 c 0,0 2.138156,-5.47903 -4.543582,-11.492591 0,0 14.699824,0.668171 25.791512,18.708871 0,0 7.26213,0.42777 11.89349,-2.40543 0,0 0.93544,4.67722 -3.34087,6.68174 l 1.73725,1.73725 c 0,0 14.16529,-3.87541 11.49259,-13.49711 0,0 18.97614,8.01808 21.38157,24.9897 l -5.7463,11.75986 -2.53906,-6.81537 -13.22984,4.81085 c 0,0 -4.81085,3.87541 -6.1472,6.1472 l -6.81537,-1.87089 c 0,0 -7.61718,0.80181 -10.557149,1.46998 0,0 -16.704346,2.27179 -25.123336,-0.80181 0,0 11.358955,24.1879 44.099475,27.79603 0.13363,0.93545 9.48807,14.16529 7.48354,20.17885 0,0 -20.31248,6.54811 -45.703085,-3.0736 0,0 -19.109772,-10.82441 -27.261492,-20.31248 0,0 2.004521,-4.94449 4.276312,-7.61718 0,0 -5.078121,3.0736 -7.082642,5.07812 0,0 -9.621703,-8.28536 -10.824416,-12.2944 0,0 8.41899,-9.75534 9.220798,-9.88897 0,0 -8.15172,3.0736 -10.156242,5.47902 0,0 -10.022607,-12.29439 -12.160763,-23.92062 0,0 12.695302,9.2208 22.584275,4.14268 z"
       id="path1497"
       inkscape:connector-curvature="0"
       sodipodi:nodetypes="ccccccccccccccccccccccccccccc" />
  </g>
  <g
     inkscape:groupmode="layer"
     id="layer11"
     inkscape:label="tongue"
     transform="translate(-22.652511,-78.820991)">
    <path
       style="fill:#009a94;fill-opacity:1;stroke:none;stroke-width:0.26458332px;stroke-linecap:butt;stroke-linejoin:miter;stroke-opacity:1"
       d="m 90.06983,166.17156 c 0,0 27.79603,-12.96257 46.63853,2.93997 0,0 8.15172,11.22532 5.21176,26.05878 0,0 0.26727,6.01356 3.34086,6.5481 0,0 7.48356,2.27179 10.82442,2.00452 0,0 8.8199,1.60362 2.13816,11.09169 0,0 -4.14268,4.14268 -15.7689,3.74177 0,0 -18.04069,0.40091 -23.11882,-1.60361 0,0 -6.81537,-0.93545 -6.01356,-6.81538 -0.4009,-8.68626 6.5481,-7.88445 3.34087,-23.11881 0,0 -4.14268,-10.02261 -7.08265,-11.62622 0,0 -13.229837,-3.07362 -19.51067,-9.22081 z"
       id="path2106"
       inkscape:connector-curvature="0"
       sodipodi:nodetypes="cccccccccccc" />
    <path
       style="fill:#00c8bd;fill-opacity:1;stroke:#00c8bd;stroke-width:0.26458332px;stroke-linecap:butt;stroke-linejoin:miter;stroke-opacity:1"
       d="m 99.872415,162.96433 c 0,0 24.808815,0.13363 27.481515,12.42803 0,0 3.34087,20.57976 8.01809,26.32605 0,0 10.55714,7.88445 23.58653,3.60814 0,0 -0.25245,-1.87088 -7.93645,-2.00452 0,0 -4.17903,-0.53927 -7.16763,-2.51139 0,0 -2.16247,-3.17144 -1.93435,-5.64033 0,0 3.00677,-14.56619 -5.21176,-26.05878 0,0 -11.51215,-12.76212 -36.835945,-6.1472 z"
       id="path2181"
       inkscape:connector-curvature="0"
       sodipodi:nodetypes="ccccccccc" />
  </g>
  <g
     inkscape:groupmode="layer"
     id="layer12"
     inkscape:label="heart"
     transform="translate(-22.652511,-78.820991)">
    <path
       style="fill:#e975ad;fill-opacity:1;stroke:#e975ad;stroke-width:2;stroke-linecap:butt;stroke-linejoin:miter;stroke-miterlimit:4;stroke-dasharray:none;stroke-opacity:1"
       d="m 83.060266,127.0997 c 0,0 2.173365,-7.27604 8.220983,-4.91369 0,0 4.346727,2.26786 1.6064,8.69345 0,0 -3.874256,6.04762 -7.181548,9.82738 0,0 -4.44122,-1.79538 -9.732887,-5.10267 0,0 -6.614583,-4.91369 -2.929315,-10.11087 0,0 5.102675,-6.89807 10.016367,1.6064 z"
       id="path2142"
       inkscape:connector-curvature="0" />
  </g>
</svg>
