<?xml version="1.0" encoding="UTF-8" standalone="no"?>
<!-- Created with Inkscape (http://www.inkscape.org/) -->

<svg
   xmlns:dc="http://purl.org/dc/elements/1.1/"
   xmlns:cc="http://creativecommons.org/ns#"
   xmlns:rdf="http://www.w3.org/1999/02/22-rdf-syntax-ns#"
   xmlns:svg="http://www.w3.org/2000/svg"
   xmlns="http://www.w3.org/2000/svg"
   xmlns:sodipodi="http://sodipodi.sourceforge.net/DTD/sodipodi-0.dtd"
   xmlns:inkscape="http://www.inkscape.org/namespaces/inkscape"
   width="161.91417mm"
   height="111.14307mm"
   viewBox="0 0 161.91417 111.14307"
   version="1.1"
   id="svg948"
   inkscape:version="0.92.4 (5da689c313, 2019-01-14)"
   sodipodi:docname="lol.svg"
   inkscape:export-filename="D:\Peti\Fresh\emojis\lol.png"
   inkscape:export-xdpi="254"
   inkscape:export-ydpi="254">
  <defs
     id="defs942" />
  <sodipodi:namedview
     id="base"
     pagecolor="#ffffff"
     bordercolor="#666666"
     borderopacity="1.0"
     inkscape:pageopacity="0.0"
     inkscape:pageshadow="2"
     inkscape:zoom="0.49497475"
     inkscape:cx="-525.59575"
     inkscape:cy="143.06304"
     inkscape:document-units="mm"
     inkscape:current-layer="layer14"
     showgrid="false"
     inkscape:window-width="1920"
     inkscape:window-height="1001"
     inkscape:window-x="-9"
     inkscape:window-y="-9"
     inkscape:window-maximized="1"
     fit-margin-top="0"
     fit-margin-left="0"
     fit-margin-right="0"
     fit-margin-bottom="0" />
  <metadata
     id="metadata945">
    <rdf:RDF>
      <cc:Work
         rdf:about="">
        <dc:format>image/svg+xml</dc:format>
        <dc:type
           rdf:resource="http://purl.org/dc/dcmitype/StillImage" />
        <dc:title />
      </cc:Work>
    </rdf:RDF>
  </metadata>
  <g
     inkscape:groupmode="layer"
     id="layer14"
     inkscape:label="tongue"
     transform="translate(-22.635445,-72.6896)">
    <path
       id="path1529"
       style="fill:#00c8bd;fill-opacity:1;stroke:none;stroke-width:0.26458332px;stroke-linecap:butt;stroke-linejoin:miter;stroke-opacity:1"
       d="m 114.52499,139.44461 c 0,0 -14.43255,0.93544 -22.450639,4.14268 l 11.759859,8.41899 m 0,0 c 0,0 3.0736,-4.81085 23.65335,-7.75082 0,0 30.06783,-3.74177 36.08139,-7.48354 0,0 7.75082,-4.14268 9.75534,-5.47903 l 8.55262,-5.34539 c 0,0 6.01357,-4.14268 0,-10.42351 0,0 -5.07812,-5.07812 -17.63979,1.06908 0,0 -14.43255,8.68626 -16.83798,10.95805 0,0 -6.68173,6.01356 -14.43255,8.55262 -0.13363,0.40091 -11.22532,3.47451 -18.4416,3.34087"
       inkscape:connector-curvature="0" />
  </g>
  <g
     inkscape:groupmode="layer"
     id="layer12"
     inkscape:label="face"
     transform="translate(-22.635445,-72.6896)">
    <path
       style="fill:#000000;fill-opacity:1;stroke:#ffffff;stroke-width:4;stroke-linecap:butt;stroke-linejoin:miter;stroke-miterlimit:4;stroke-dasharray:none;stroke-opacity:1"
       d="m 59.467469,126.08113 c 0,0 -6.1472,10.02261 -23.118813,5.61267 0,0 9.488068,16.97161 18.976136,19.51067 0,0 6.681738,-7.88445 10.958051,-9.75534 -0.668174,0.53454 -6.013564,8.55263 -6.147199,12.69531 0,0 5.61266,8.15172 11.893494,8.55262 l 3.207234,-9.08716 c 0,0 5.078121,13.09621 5.746295,18.70887 0,0 34.611403,8.81989 68.020093,9.48806 0,0 6.54811,-14.29892 7.61718,-26.05878 0,0 0,-6.14719 -0.80181,-11.09168 0,0 -5.47902,10.02261 -11.62622,11.49259 0,0 -16.30344,2.80633 -25.65787,0 0,0 -19.24341,-6.41447 -31.00327,-27.39513 0,0 8.018086,3.20724 15.50163,-0.13363 l 21.64883,-8.8199 c 0,0 7.48355,-3.60814 14.29892,-2.27179 0,0 1.60362,-7.21628 3.47451,-8.28535 l 10.95805,-7.88445 3.87541,7.08264 1.60361,-12.962574 c 0,0 -7.61718,-20.178849 -30.73599,-20.713388 0,0 5.07812,10.289876 -8.01809,18.441597 l -2.13815,-0.801809 c 0,0 2.67269,-3.207234 2.13815,-9.220798 0,0 -5.87993,8.15172 -10.82441,8.018086 0,0 -13.36348,-12.027129 -33.675964,-10.289877 0,0 6.414469,2.138156 9.621703,10.022607 0,0 -8.819894,0.400904 -13.096207,4.944486 0,0 -34.432801,-4.951887 -47.70761,-21.515197 0,0 18.708865,41.025857 35.012307,51.716647 z"
       id="path1521"
       inkscape:connector-curvature="0" />
  </g>
  <g
     inkscape:groupmode="layer"
     id="layer13"
     inkscape:label="eye"
     transform="translate(-22.635445,-72.6896)">
    <path
       style="fill:#ffffff;fill-opacity:1;stroke:#ffffff;stroke-width:2;stroke-linecap:butt;stroke-linejoin:round;stroke-miterlimit:4;stroke-dasharray:none;stroke-opacity:1"
       d="m 78.90253,117.6503 c 0,0 3.401785,-8.12649 13.512646,-10.67783 0,0 12.945684,-4.06324 17.670394,2.07887 0,0 -5.57515,-9.827382 -18.709826,-7.08705 0,0 -11.150297,4.34673 -12.473214,15.68601 z"
       id="path1524"
       inkscape:connector-curvature="0" />
  </g>
</svg>
