<?xml version="1.0" encoding="UTF-8" standalone="no"?>
<!-- Created with Inkscape (http://www.inkscape.org/) -->

<svg
   xmlns:dc="http://purl.org/dc/elements/1.1/"
   xmlns:cc="http://creativecommons.org/ns#"
   xmlns:rdf="http://www.w3.org/1999/02/22-rdf-syntax-ns#"
   xmlns:svg="http://www.w3.org/2000/svg"
   xmlns="http://www.w3.org/2000/svg"
   xmlns:sodipodi="http://sodipodi.sourceforge.net/DTD/sodipodi-0.dtd"
   xmlns:inkscape="http://www.inkscape.org/namespaces/inkscape"
   width="174.37352mm"
   height="145.39435mm"
   viewBox="0 0 174.37352 145.39435"
   version="1.1"
   id="svg8"
   inkscape:version="0.92.4 (5da689c313, 2019-01-14)"
   sodipodi:docname="party.svg"
   inkscape:export-filename="D:\Peti\Fresh\emojis\party.png"
   inkscape:export-xdpi="254"
   inkscape:export-ydpi="254">
  <defs
     id="defs2" />
  <sodipodi:namedview
     id="base"
     pagecolor="#ffffff"
     bordercolor="#666666"
     borderopacity="1.0"
     inkscape:pageopacity="0.0"
     inkscape:pageshadow="2"
     inkscape:zoom="0.7"
     inkscape:cx="-80.244769"
     inkscape:cy="274.91684"
     inkscape:document-units="mm"
     inkscape:current-layer="layer9"
     showgrid="false"
     inkscape:window-width="1920"
     inkscape:window-height="1001"
     inkscape:window-x="-9"
     inkscape:window-y="-9"
     inkscape:window-maximized="1"
     fit-margin-top="0"
     fit-margin-left="0"
     fit-margin-right="0"
     fit-margin-bottom="0" />
  <metadata
     id="metadata5">
    <rdf:RDF>
      <cc:Work
         rdf:about="">
        <dc:format>image/svg+xml</dc:format>
        <dc:type
           rdf:resource="http://purl.org/dc/dcmitype/StillImage" />
        <dc:title />
      </cc:Work>
    </rdf:RDF>
  </metadata>
  <g
     inkscape:groupmode="layer"
     id="layer9"
     inkscape:label="horn"
     transform="translate(-16.615598,-73.143888)">
    <path
       style="fill:#0051ec;fill-opacity:1;stroke:#f3f3f3;stroke-width:2;stroke-linecap:butt;stroke-linejoin:miter;stroke-miterlimit:4;stroke-dasharray:none;stroke-opacity:1"
       d="m 140.98467,166.43883 33.14142,-2.80633 c 0,0 8.28536,-0.66817 7.88446,-6.5481 0,0 -2.00452,-3.60814 -7.48355,-0.66817 0,0 -1.9377,1.06908 -1.46998,4.07586 0,0 -4.47677,-3.60814 -0.26727,-9.48807 0,0 6.34765,-5.54584 13.96483,0 0,0 6.08038,6.28083 1.60362,13.22984 0,0 -2.87315,5.41221 -8.88671,6.28084 l -38.95454,2.00452 z"
       id="path886"
       inkscape:connector-curvature="0" />
  </g>
  <g
     inkscape:groupmode="layer"
     id="layer3"
     inkscape:label="face"
     style="display:inline;opacity:1"
     transform="translate(-16.615598,-73.143888)">
    <path
       style="fill:#000000;fill-opacity:1;stroke:#ffffff;stroke-width:15.11811066;stroke-linecap:butt;stroke-linejoin:miter;stroke-miterlimit:4;stroke-dasharray:none;stroke-opacity:1"
       d="m 505.07617,491.17383 c 0,0 2.0205,48.99378 -54.04297,57.58008 l -7.07031,-6.0625 c 0,0 16.66756,-15.15122 15.15234,-30.8086 0,0 -16.6681,19.19177 -46.97265,15.65625 0,0 -22.22386,-28.78907 -34.3457,-33.83984 0,0 -142.4323,-22.2222 -214.65821,106.57226 0,0 -45.96186,20.70732 -86.873045,-15.6582 0,0 20.204398,78.79227 47.478515,101.01563 0,0 18.68684,-16.66683 51.01172,-22.22266 0,0 -35.3547,23.23208 -37.375,36.86914 0,0 18.18213,42.42624 44.95117,56.56836 0,0 14.64731,-19.69805 27.7793,-22.72852 0,0 -14.64764,22.22472 -9.0918,50.00391 0,0 44.44814,7.57626 70.20703,32.83008 0,0 172.73508,-78.28708 257.58789,-70.71094 0,0 10.96446,-33.59209 21.79493,-58.76367 5.10595,-11.86696 10.18263,-21.86206 14.0664,-25.58399 l 2.52539,6.06055 28.28321,-57.57812 c 0,0 -16.66706,-102.02664 -90.40821,-119.19922 z m 50.00195,135.36133 5.99415,24.19922 -59.64454,-3.57227 4.65821,-5.98047 c 21.33073,-3.09645 33.73288,-8.69289 48.99218,-14.64648 z"
       transform="scale(0.26458333)"
       id="path828"
       inkscape:connector-curvature="0"
       sodipodi:nodetypes="ccccccccccccccccsccccccccc" />
  </g>
  <g
     inkscape:groupmode="layer"
     id="layer4"
     inkscape:label="eye"
     style="display:inline"
     transform="translate(-16.615598,-73.143888)">
    <path
       style="fill:#ffffff;fill-opacity:1;stroke:#ffffff;stroke-width:2;stroke-linecap:butt;stroke-linejoin:miter;stroke-miterlimit:4;stroke-dasharray:none;stroke-opacity:1"
       d="m 101.20312,150.53423 c 0,0 -2.267854,-5.19718 -6.709073,-5.95313 0,0 -16.063987,-0.56696 -15.874999,15.30804 0,0 6.520079,-12.18973 22.584072,-9.35491 z"
       id="path831"
       inkscape:connector-curvature="0" />
  </g>
  <g
     inkscape:groupmode="layer"
     id="layer8"
     inkscape:label="cap color"
     style="opacity:1"
     transform="translate(-16.615598,-73.143888)">
    <path
       style="fill:#ec0000;fill-opacity:1;stroke:none;stroke-width:0.26458332px;stroke-linecap:butt;stroke-linejoin:miter;stroke-opacity:1"
       d="m 43.164029,158.82165 c 0,0 45.435816,-15.36799 56.794773,-28.19693 0,0 -43.030393,-43.4313 -53.721174,-47.173073 0,0 -7.483546,60.803813 -3.073599,75.370003 z"
       id="path873"
       inkscape:connector-curvature="0" />
  </g>
  <g
     inkscape:groupmode="layer"
     id="layer7"
     inkscape:label="stripes"
     transform="translate(-16.615598,-73.143888)">
    <path
       style="fill:none;stroke:#ffe031;stroke-width:4;stroke-linecap:butt;stroke-linejoin:miter;stroke-miterlimit:4;stroke-dasharray:none;stroke-opacity:1"
       d="m 43.656249,103.85416 c 0,0 8.315476,-6.898059 9.732886,-15.119042"
       id="path875"
       inkscape:connector-curvature="0" />
    <path
       style="fill:none;stroke:#ffe031;stroke-width:4;stroke-linecap:butt;stroke-linejoin:miter;stroke-miterlimit:4;stroke-dasharray:none;stroke-opacity:1"
       d="m 42.900298,119.72916 c 0,0 15.969493,-9.92187 21.355653,-22.111601"
       id="path877"
       inkscape:connector-curvature="0" />
    <path
       style="fill:none;stroke:#ffe031;stroke-width:4;stroke-linecap:butt;stroke-linejoin:miter;stroke-miterlimit:4;stroke-dasharray:none;stroke-opacity:1"
       d="m 43.089284,139.8564 c 0,0 25.796875,-16.72545 31.372024,-33.82887"
       id="path879"
       inkscape:connector-curvature="0" />
    <path
       style="fill:none;stroke:#ffe031;stroke-width:4;stroke-linecap:butt;stroke-linejoin:miter;stroke-miterlimit:4;stroke-dasharray:none;stroke-opacity:1"
       d="m 43.939732,155.6369 c 0,0 29.104166,-13.70163 41.482885,-39.593"
       id="path881"
       inkscape:connector-curvature="0" />
    <path
       style="fill:none;stroke:#ffe031;stroke-width:4;stroke-linecap:round;stroke-linejoin:miter;stroke-miterlimit:4;stroke-dasharray:none;stroke-opacity:1"
       d="m 94.305058,124.73735 c 0,0 -5.480655,12.00075 -15.969494,18.70982"
       id="path883"
       inkscape:connector-curvature="0"
       sodipodi:nodetypes="cc" />
  </g>
  <g
     inkscape:groupmode="layer"
     id="layer5"
     inkscape:label="cap"
     style="opacity:1"
     transform="translate(-16.615598,-73.143888)">
    <path
       style="fill:none;fill-opacity:1;stroke:#ffffff;stroke-width:4;stroke-linecap:butt;stroke-linejoin:miter;stroke-miterlimit:4;stroke-dasharray:none;stroke-opacity:1"
       d="m 99.958802,130.62472 c 0,0 -32.205978,21.24792 -56.794773,28.19693 0,0 -2.539061,-53.58754 3.073599,-75.370003 0,0 33.943228,25.390603 53.721174,47.173073 z"
       id="path834"
       inkscape:connector-curvature="0" />
  </g>
  <g
     inkscape:groupmode="layer"
     id="layer10"
     inkscape:label="confetti"
     style="display:inline"
     transform="translate(-16.615598,-73.143888)">
    <path
       style="fill:none;stroke:#ff10cd;stroke-width:6;stroke-linecap:butt;stroke-linejoin:miter;stroke-miterlimit:4;stroke-dasharray:none;stroke-opacity:1"
       d="m 110.36905,74.655504 c 0,0 -2.64584,4.535715 -1.13393,6.425597 2.45684,1.228422 4.63021,-0.566964 3.96875,2.740327 -2.32043,5.350954 -0.95722,10.299851 3.67299,9.638393"
       id="path889"
       inkscape:connector-curvature="0"
       sodipodi:nodetypes="cccc" />
    <path
       style="fill:none;stroke:#fffe0e;stroke-width:6;stroke-linecap:butt;stroke-linejoin:miter;stroke-miterlimit:4;stroke-dasharray:none;stroke-opacity:1"
       d="m 138.90625,103.2872 c 1.70089,-0.47247 5.00818,-1.70089 0.85045,4.06324 -1.51191,1.22843 -0.56697,3.40179 3.40178,2.83483 2.26786,0.66146 -0.66146,5.19717 -0.75595,6.42559 -0.47247,2.45685 4.25223,1.03944 4.25223,1.03944"
       id="path891"
       inkscape:connector-curvature="0" />
    <path
       style="display:inline;fill:none;stroke:#00a3d1;stroke-width:6;stroke-linecap:butt;stroke-linejoin:miter;stroke-miterlimit:4;stroke-dasharray:none;stroke-opacity:1"
       d="m 178.99616,86.823011 c -1.55561,-0.834468 -4.51239,-2.759213 -1.72201,3.77728 1.20522,1.530472 -0.19394,3.443257 -3.94129,2.018562 -2.35776,0.147268 -0.49604,5.215559 -0.67363,6.434744 -0.0786,2.500633 -4.3767,0.08023 -4.3767,0.08023"
       id="path891-7"
       inkscape:connector-curvature="0" />
    <circle
       style="display:inline;opacity:1;fill:#ffe031;fill-opacity:1;stroke:none;stroke-width:5.33333349;stroke-linecap:round;stroke-linejoin:round;stroke-miterlimit:4;stroke-dasharray:none;stroke-opacity:1"
       id="path910-7"
       cx="159.78943"
       cy="81.459076"
       r="4.1577382" />
    <circle
       style="display:inline;opacity:1;fill:#ffe031;fill-opacity:1;stroke:none;stroke-width:5.33333349;stroke-linecap:round;stroke-linejoin:round;stroke-miterlimit:4;stroke-dasharray:none;stroke-opacity:1"
       id="path910-7-4"
       cx="107.34524"
       cy="111.41369"
       r="4.1577382" />
  </g>
  <g
     inkscape:groupmode="layer"
     id="layer6"
     inkscape:label="mouth"
     style="display:inline"
     transform="translate(-16.615598,-73.143888)">
    <path
       style="fill:none;stroke:#ffffff;stroke-width:4;stroke-linecap:butt;stroke-linejoin:miter;stroke-miterlimit:4;stroke-dasharray:none;stroke-opacity:1"
       d="m 149.40367,175.1251 -2.53907,-9.35444 c 0,0 -9.75533,3.74177 -12.96257,3.87541 l -6.1472,6.28083 c 0,0 -2.80633,-4.40994 -6.81537,-3.60813 0,0 -18.8425,4.94448 -28.063299,5.87992 0,0 -5.61266,0.13364 -10.289877,-1.60361"
       id="path839"
       inkscape:connector-curvature="0" />
  </g>
</svg>
