<?xml version="1.0" encoding="UTF-8" standalone="no"?>
<!-- Created with Inkscape (http://www.inkscape.org/) -->

<svg
   xmlns:dc="http://purl.org/dc/elements/1.1/"
   xmlns:cc="http://creativecommons.org/ns#"
   xmlns:rdf="http://www.w3.org/1999/02/22-rdf-syntax-ns#"
   xmlns:svg="http://www.w3.org/2000/svg"
   xmlns="http://www.w3.org/2000/svg"
   xmlns:sodipodi="http://sodipodi.sourceforge.net/DTD/sodipodi-0.dtd"
   xmlns:inkscape="http://www.inkscape.org/namespaces/inkscape"
   width="157.34128mm"
   height="141.54343mm"
   viewBox="0 0 157.34128 141.54343"
   version="1.1"
   id="svg2677"
   inkscape:version="0.92.4 (5da689c313, 2019-01-14)"
   sodipodi:docname="ree.svg"
   inkscape:export-filename="D:\Peti\Fresh\emojis\ree.png"
   inkscape:export-xdpi="1195.5"
   inkscape:export-ydpi="1195.5">
  <defs
     id="defs2671" />
  <sodipodi:namedview
     id="base"
     pagecolor="#ffffff"
     bordercolor="#666666"
     borderopacity="1.0"
     inkscape:pageopacity="0.0"
     inkscape:pageshadow="2"
     inkscape:zoom="0.49497475"
     inkscape:cx="-463.69973"
     inkscape:cy="207.11149"
     inkscape:document-units="mm"
     inkscape:current-layer="layer23"
     showgrid="false"
     inkscape:window-width="1920"
     inkscape:window-height="1001"
     inkscape:window-x="-9"
     inkscape:window-y="-9"
     inkscape:window-maximized="1"
     fit-margin-top="0"
     fit-margin-left="0"
     fit-margin-right="0"
     fit-margin-bottom="0" />
  <metadata
     id="metadata2674">
    <rdf:RDF>
      <cc:Work
         rdf:about="">
        <dc:format>image/svg+xml</dc:format>
        <dc:type
           rdf:resource="http://purl.org/dc/dcmitype/StillImage" />
        <dc:title />
      </cc:Work>
    </rdf:RDF>
  </metadata>
  <g
     inkscape:groupmode="layer"
     id="layer23"
     inkscape:label="tongue"
     transform="translate(-32.164229,-30.986727)">
    <path
       style="fill:#009a94;fill-opacity:1;stroke:#009a94;stroke-width:4;stroke-linecap:butt;stroke-linejoin:miter;stroke-miterlimit:4;stroke-dasharray:none;stroke-opacity:1"
       d="m 80.838286,119.21407 c 0,0 14.56619,-8.55263 30.335094,-1.87089 0,0 8.55263,6.41447 22.04974,1.73725 0,0 10.28988,-5.47902 21.5152,5.34539 0,0 15.63527,7.08265 29.53328,-3.8754 0,0 5.87993,-5.7463 1.87089,-11.49259 0,0 -5.61266,-5.47903 -12.56167,0.13363 0,0 -6.5481,6.94901 -21.64883,2.40543 -5.61266,-2.93997 -8.8199,-6.54811 -17.37252,-2.80633 0,0 -14.16529,6.01356 -19.91158,2.27179 0,0 -8.68626,-6.81538 -13.22984,-4.67722 0,0 -11.225328,2.13816 -19.10978,3.4745 z"
       id="path3255"
       inkscape:connector-curvature="0" />
  </g>
  <g
     inkscape:groupmode="layer"
     id="layer20"
     inkscape:label="face"
     style="display:inline"
     transform="translate(-32.164229,-30.986727)">
    <path
       style="fill:#000000;fill-opacity:1;stroke:#ffffff;stroke-width:4;stroke-linecap:butt;stroke-linejoin:miter;stroke-miterlimit:4;stroke-dasharray:none;stroke-opacity:1"
       d="m 62.263054,88.878977 c 0,0 -13.630745,-9.08717 -17.105248,-23.653357 0,0 -7.617181,-1.870886 -10.022607,-3.608138 L 34.199755,47.986736 43.01965,31.950565 c 0,0 0,14.967093 3.207234,22.317005 0,0 10.557147,0.133635 11.893494,-0.801808 0,0 5.479025,11.22532 27.127857,6.013564 0,0 13.898016,-7.349912 -6.147199,-17.238885 0,0 13.764381,1.202713 18.040693,3.608139 0,0 12.294401,10.156242 14.566191,14.699824 0,0 5.87993,-0.400904 8.55263,-6.280834 0,0 1.46998,5.746295 -0.13364,11.091686 0,0 5.87993,0.801811 9.48807,-2.939965 l 3.60814,-5.211756 c 0,0 -0.80181,-4.409947 -2.27179,-7.884451 0,0 19.51068,-2.539061 27.26149,14.165285 0,0 4.00905,9.220798 3.60814,16.036168 l -3.20723,12.42804 -5.87993,-8.41899 c 0,0 -10.69078,-0.93545 -12.96258,10.82441 0,0 -5.07812,-6.41447 -10.55714,-5.87993 0,0 -8.8199,6.1472 -9.48807,10.95805 l -7.75082,-7.34991 c 0,0 -6.5481,4.27631 -7.88445,9.087173 0,0 -6.815376,-6.949013 -10.958054,-2.939973 0,0 -8.686259,21.515203 -8.819894,24.722433 0,0 13.363476,11.22532 18.040698,12.02713 l 11.35896,-6.68174 c 0,0 1.73725,8.95353 5.61266,11.8935 0,0 7.21627,1.73725 16.57071,-5.47903 0,0 2.80633,8.8199 6.01356,11.09169 0,0 7.88445,-0.53454 12.56167,-6.1472 0,0 1.46998,4.81085 -2.13816,11.22532 l -14.16528,19.64431 c 0,0 -25.12334,0.4009 -57.596591,-17.23889 0,0 -13.497112,-11.35895 -19.777946,-22.317 0,0 4.543582,-7.61719 5.746295,-8.8199 0,0 -6.548103,3.47451 -7.483546,5.21176 0,0 -5.078122,-7.61718 -7.216278,-14.03165 0,0 7.750817,-3.60814 11.759859,-8.28536 0,0 -10.022607,4.27632 -13.630745,2.53906 0,0 -7.884451,-14.699823 -9.087164,-25.123333 0,0 7.082638,6.01357 21.38156,6.41447 z"
       id="path3246"
       inkscape:connector-curvature="0"
       sodipodi:nodetypes="cccccccccccccccccccccccccccccccccccccccccccc"
       inkscape:export-xdpi="1195"
       inkscape:export-ydpi="1195" />
  </g>
  <g
     inkscape:groupmode="layer"
     id="layer21"
     inkscape:label="eye"
     transform="translate(-32.164229,-30.986727)">
    <path
       style="fill:#ffffff;fill-opacity:1;stroke:#ffffff;stroke-width:2;stroke-linecap:butt;stroke-linejoin:miter;stroke-opacity:1;stroke-miterlimit:4;stroke-dasharray:none"
       d="m 110.00997,83.065477 c 0,0 -3.59077,-10.29985 -28.159227,-17.859376 0,0 8.220984,6.142116 8.220984,10.583336 0,0 -0.283482,4.44122 -2.362351,6.99256 l 8.693452,-4.44122 c 0,0 9.543892,0.94494 13.607142,4.7247 z"
       id="path3249"
       inkscape:connector-curvature="0" />
  </g>
</svg>
