<?xml version="1.0" encoding="UTF-8" standalone="no"?>
<!-- Created with Inkscape (http://www.inkscape.org/) -->

<svg
   xmlns:dc="http://purl.org/dc/elements/1.1/"
   xmlns:cc="http://creativecommons.org/ns#"
   xmlns:rdf="http://www.w3.org/1999/02/22-rdf-syntax-ns#"
   xmlns:svg="http://www.w3.org/2000/svg"
   xmlns="http://www.w3.org/2000/svg"
   xmlns:sodipodi="http://sodipodi.sourceforge.net/DTD/sodipodi-0.dtd"
   xmlns:inkscape="http://www.inkscape.org/namespaces/inkscape"
   width="149.0827mm"
   height="128.23288mm"
   viewBox="0 0 149.0827 128.23288"
   version="1.1"
   id="svg2083"
   inkscape:version="0.92.4 (5da689c313, 2019-01-14)"
   sodipodi:docname="sad.svg"
   inkscape:export-filename="D:\Peti\Fresh\emojis\sad.png"
   inkscape:export-xdpi="1195"
   inkscape:export-ydpi="1195">
  <defs
     id="defs2077" />
  <sodipodi:namedview
     id="base"
     pagecolor="#ffffff"
     bordercolor="#666666"
     borderopacity="1.0"
     inkscape:pageopacity="0.0"
     inkscape:pageshadow="2"
     inkscape:zoom="0.71980918"
     inkscape:cx="-252.60791"
     inkscape:cy="224.0645"
     inkscape:document-units="mm"
     inkscape:current-layer="layer15"
     showgrid="false"
     inkscape:window-width="1920"
     inkscape:window-height="1001"
     inkscape:window-x="-9"
     inkscape:window-y="-9"
     inkscape:window-maximized="1"
     fit-margin-top="0"
     fit-margin-left="0"
     fit-margin-right="0"
     fit-margin-bottom="0" />
  <metadata
     id="metadata2080">
    <rdf:RDF>
      <cc:Work
         rdf:about="">
        <dc:format>image/svg+xml</dc:format>
        <dc:type
           rdf:resource="http://purl.org/dc/dcmitype/StillImage" />
        <dc:title />
      </cc:Work>
    </rdf:RDF>
  </metadata>
  <g
     inkscape:groupmode="layer"
     id="layer15"
     inkscape:label="face"
     style="opacity:1"
     transform="translate(-41.363295,-69.928536)">
    <path
       style="fill:#000000;fill-opacity:1;stroke:#ffffff;stroke-width:4;stroke-linecap:butt;stroke-linejoin:miter;stroke-miterlimit:4;stroke-dasharray:none;stroke-opacity:1"
       d="m 73.705357,126.34375 c 0,0 -8.882441,-41.955357 -31.372024,-54.428572 0,0 37.419643,4.346727 57.452381,36.474702 0,0 15.308036,-2.83482 21.544646,0 0,0 3.02381,-8.88244 -1.88988,-14.174106 0,0 18.52083,6.236606 23.24553,27.592266 0,0 7.37054,6.2366 15.875,2.07886 0,0 -0.56696,3.2128 -6.61458,5.48066 0,0 0.37797,2.07887 2.83482,2.26786 0,0 13.79613,3.21279 19.0878,-11.52828 0,0 20.5997,14.74107 12.85119,39.49851 l -8.69345,15.875 -1.51191,1.88989 c 0,0 -4.34673,13.60714 -9.4494,18.52083 0,0 -37.60863,-12.09524 -82.020837,-5.48066 0,0 -11.339286,-9.63839 -15.686012,-19.27678 0,0 4.157738,-4.7247 6.803571,-7.18155 0,0 -8.126488,2.83482 -8.88244,4.7247 0,0 -7.181548,-11.71726 -7.748512,-17.00893 0,0 6.425595,-5.66964 13.607143,-7.18154 0,0 -11.339286,-0.75596 -17.008929,1.88988 0,0 -8.504464,-20.22173 -4.535714,-30.42709 0,0 7.559523,12.28423 22.111607,10.39435 z"
       id="path2641"
       inkscape:connector-curvature="0" />
  </g>
  <g
     inkscape:groupmode="layer"
     id="layer18"
     inkscape:label="mouth"
     transform="translate(-41.363295,-69.928536)">
    <path
       style="fill:none;stroke:#ffffff;stroke-width:4;stroke-linecap:butt;stroke-linejoin:miter;stroke-miterlimit:4;stroke-dasharray:none;stroke-opacity:1"
       d="m 178.02679,175.48065 c 0,0 -0.24545,-11.6867 -1.41506,-16.88499 0,0 -17.02438,1.16962 -25.47159,4.80842 0,0 -4.41855,4.02867 -5.84807,7.66747 0,0 -4.41855,-10.0067 -7.2776,-10.9164 0,0 -14.03537,-5.84807 -25.34164,5.4582"
       id="path2656"
       inkscape:connector-curvature="0" />
  </g>
  <g
     inkscape:groupmode="layer"
     id="layer16"
     inkscape:label="eye"
     transform="translate(-41.363295,-69.928536)">
    <path
       style="fill:#ffffff;fill-opacity:1;stroke:#ffffff;stroke-width:2;stroke-linecap:butt;stroke-linejoin:miter;stroke-miterlimit:4;stroke-dasharray:none;stroke-opacity:1"
       d="m 130.2128,135.0372 c 0,0 1.70089,-8.88244 -3.02381,-13.41815 0,0 -16.25298,2.45684 -21.35566,10.58333 0,0 6.04762,-2.26786 7.37054,-2.07887 0,0 -5.48066,5.48066 -7.37054,12.28423 0,0 15.87501,-14.3631 24.37947,-7.37054 z"
       id="path2644"
       inkscape:connector-curvature="0" />
  </g>
</svg>
