<?xml version="1.0" encoding="UTF-8" standalone="no"?>
<!-- Created with Inkscape (http://www.inkscape.org/) -->

<svg
   xmlns:osb="http://www.openswatchbook.org/uri/2009/osb"
   xmlns:dc="http://purl.org/dc/elements/1.1/"
   xmlns:cc="http://creativecommons.org/ns#"
   xmlns:rdf="http://www.w3.org/1999/02/22-rdf-syntax-ns#"
   xmlns:svg="http://www.w3.org/2000/svg"
   xmlns="http://www.w3.org/2000/svg"
   xmlns:sodipodi="http://sodipodi.sourceforge.net/DTD/sodipodi-0.dtd"
   xmlns:inkscape="http://www.inkscape.org/namespaces/inkscape"
   width="161.90007mm"
   height="122.16582mm"
   viewBox="0 0 161.90007 122.16582"
   version="1.1"
   id="svg8"
   inkscape:version="0.92.4 (5da689c313, 2019-01-14)"
   sodipodi:docname="sick.svg"
   inkscape:export-filename="D:\Peti\Fresh\emojis\sick.png"
   inkscape:export-xdpi="254"
   inkscape:export-ydpi="254">
  <defs
     id="defs2">
    <linearGradient
       id="linearGradient2316"
       osb:paint="solid">
      <stop
         style="stop-color:#ffffff;stop-opacity:1;"
         offset="0"
         id="stop2314" />
    </linearGradient>
  </defs>
  <sodipodi:namedview
     id="base"
     pagecolor="#ffffff"
     bordercolor="#666666"
     borderopacity="1.0"
     inkscape:pageopacity="0.0"
     inkscape:pageshadow="2"
     inkscape:zoom="0.35"
     inkscape:cx="-1126.6655"
     inkscape:cy="352.44024"
     inkscape:document-units="mm"
     inkscape:current-layer="layer3"
     showgrid="false"
     inkscape:window-width="1920"
     inkscape:window-height="1001"
     inkscape:window-x="-9"
     inkscape:window-y="-9"
     inkscape:window-maximized="1"
     fit-margin-top="0"
     fit-margin-left="0"
     fit-margin-right="0"
     fit-margin-bottom="0" />
  <metadata
     id="metadata5">
    <rdf:RDF>
      <cc:Work
         rdf:about="">
        <dc:format>image/svg+xml</dc:format>
        <dc:type
           rdf:resource="http://purl.org/dc/dcmitype/StillImage" />
        <dc:title />
      </cc:Work>
    </rdf:RDF>
  </metadata>
  <g
     inkscape:groupmode="layer"
     id="layer3"
     inkscape:label="face"
     style="opacity:1"
     transform="translate(-26.830348,-83.615183)">
    <path
       style="fill:#000000;fill-opacity:1;stroke:#ffffff;stroke-width:4;stroke-linecap:butt;stroke-linejoin:miter;stroke-miterlimit:4;stroke-dasharray:none;stroke-opacity:1"
       d="m 55.940475,133.33631 c 0,0 -3.212798,-29.86012 -13.418153,-34.206848 0,0 -7.370536,-1.700891 -12.095239,9.071428 0,0 -0.377976,-14.174104 12.095238,-21.54464 0,0 8.315477,-3.96875 16.630953,3.590774 0,0 18.331845,18.520836 19.654762,19.654766 0,0 5.291666,0.94494 10.394345,-2.64584 0,0 9.620527,-5.62997 16.101809,0.0495 0,0 4.27632,-6.21401 -2.27179,-16.370256 0,0 14.56619,0.668174 30.46873,29.800556 0,0 7.48355,4.81085 17.37252,-2.40543 0,0 -0.40091,8.41899 -7.21628,10.02261 l 1.46998,2.40542 c 0,0 15.10073,0.93545 19.77795,-14.83346 0,0 12.16076,1.73726 18.4416,18.84251 0,0 4.94448,15.10072 2.80633,22.04973 l -5.87993,8.8199 c 0,0 2.00452,22.71791 -12.16077,36.88319 0,0 -36.88319,-10.55714 -85.125342,1.20271 0,0 -16.036171,-3.8754 -24.321527,-13.36347 0,0 2.672696,-14.16529 3.474504,-15.10073 0,0 -6.681738,2.27179 -11.091685,7.21628 0,0 -8.018086,-8.15172 -9.888973,-19.37704 0,0 10.022608,-8.55263 11.893494,-9.2208 0,0 -10.156242,1.06908 -14.967093,4.14268 0,0 -11.22532,-13.63075 -8.953529,-33.4087 0,0 9.249451,11.57039 26.808096,8.72516 z"
       id="path828"
       inkscape:connector-curvature="0" />
  </g>
  <g
     inkscape:groupmode="layer"
     id="layer6"
     inkscape:label="green">
    <g
       id="g3473"
       style="stroke:#00d21b;stroke-opacity:1;stroke-width:4;stroke-miterlimit:4;stroke-dasharray:none;stroke-linecap:round">
      <path
         inkscape:connector-curvature="0"
         id="path3458"
         d="M 48.758927,70.19409 57.074403,59.043794"
         style="fill:none;stroke:#00d21b;stroke-width:4;stroke-linecap:round;stroke-linejoin:miter;stroke-opacity:1;stroke-miterlimit:4;stroke-dasharray:none" />
      <path
         inkscape:connector-curvature="0"
         id="path3460"
         d="M 54.806548,76.052721 58.964284,65.847364"
         style="fill:none;stroke:#00d21b;stroke-width:4;stroke-linecap:round;stroke-linejoin:miter;stroke-opacity:1;stroke-miterlimit:4;stroke-dasharray:none" />
      <path
         inkscape:connector-curvature="0"
         id="path3462"
         d="m 56.696427,82.478315 6.803572,-7.559521"
         style="fill:none;stroke:#00d21b;stroke-width:4;stroke-linecap:round;stroke-linejoin:miter;stroke-opacity:1;stroke-miterlimit:4;stroke-dasharray:none" />
      <path
         inkscape:connector-curvature="0"
         id="path3464"
         d="m 58.416314,91.706309 5.461661,-9.41698"
         style="fill:none;stroke:#00d21b;stroke-width:4;stroke-linecap:round;stroke-linejoin:miter;stroke-miterlimit:4;stroke-dasharray:none;stroke-opacity:1"
         sodipodi:nodetypes="cc" />
      <path
         inkscape:connector-curvature="0"
         id="path3466"
         d="M 58.23126,104.59779 67.468748,91.360758"
         style="fill:none;stroke:#00d21b;stroke-width:4;stroke-linecap:round;stroke-linejoin:miter;stroke-miterlimit:4;stroke-dasharray:none;stroke-opacity:1"
         sodipodi:nodetypes="cc" />
    </g>
  </g>
  <g
     inkscape:groupmode="layer"
     id="layer5"
     inkscape:label="mouth"
     transform="translate(-26.830348,-83.615183)">
    <g
       id="g846"
       style="stroke:#ffffff;stroke-width:4;stroke-miterlimit:4;stroke-dasharray:none;stroke-opacity:1">
      <path
         sodipodi:nodetypes="cccccccccc"
         inkscape:connector-curvature="0"
         id="path840"
         d="m 180.2733,165.63703 -3.09696,-7.2598 c 0,0 -10.01637,2.26786 -15.21354,5.57515 0,0 -5.66964,2.45685 -9.44941,6.70908 0,0 0,-5.00819 -3.21279,-7.37054 0,0 -6.52009,-2.83482 -9.5439,-2.17336 0,0 -10.77232,3.96875 -15.59152,6.99256 0,0 -4.8192,-0.37798 -7.37054,-1.98438 0,0 -6.3311,-5.19717 -9.63839,-3.21279 l -2.83482,2.17336"
         style="fill:none;stroke:#ffffff;stroke-width:4;stroke-linecap:butt;stroke-linejoin:miter;stroke-miterlimit:4;stroke-dasharray:none;stroke-opacity:1" />
      <path
         inkscape:connector-curvature="0"
         id="path842"
         d="m 95.627975,151.95164 c 0,0 16.630955,10.01636 3.96875,29.67113"
         style="fill:none;stroke:#ffffff;stroke-width:4;stroke-linecap:butt;stroke-linejoin:miter;stroke-miterlimit:4;stroke-dasharray:none;stroke-opacity:1" />
    </g>
  </g>
  <g
     inkscape:groupmode="layer"
     id="layer4"
     inkscape:label="eye"
     transform="translate(-26.830348,-83.615183)">
    <path
       sodipodi:type="spiral"
       style="fill:none;fill-rule:evenodd;stroke:#ffffff;stroke-width:3;stroke-linecap:round;stroke-miterlimit:4;stroke-dasharray:none;stroke-opacity:1"
       id="path835"
       sodipodi:cx="113.77083"
       sodipodi:cy="132.76935"
       sodipodi:expansion="1"
       sodipodi:revolution="3"
       sodipodi:radius="15.80849"
       sodipodi:argument="-16.192999"
       sodipodi:t0="0"
       d="m 113.77083,132.76935 c -0.70119,0.36955 -0.84409,-0.76287 -0.61421,-1.16543 0.62294,-1.0909 2.18177,-0.81446 2.94506,-0.063 1.36535,1.3442 0.87966,3.5862 -0.48821,4.72471 -2.00741,1.6708 -5.01195,0.95307 -6.50435,-1.03943 -1.98913,-2.65569 -1.03036,-6.44556 1.59065,-8.28398 3.29826,-2.31347 7.88299,-1.10974 10.06361,2.14185 2.64103,3.93812 1.19033,9.3226 -2.69307,11.84326 -4.57645,2.97051 -10.76355,1.27169 -13.62289,-3.24428 -3.30122,-5.21388 -1.35357,-12.20542 3.7955,-15.40254 5.8507,-3.63276 13.64791,-1.4358 17.18217,4.34671 3.9649,6.48711 1.5183,15.09088 -4.89793,18.96181 -7.12322,4.29748 -16.53418,1.60099 -20.741444,-5.44913" />
  </g>
</svg>
