<?xml version="1.0" encoding="UTF-8" standalone="no"?>
<!-- Created with Inkscape (http://www.inkscape.org/) -->

<svg
   xmlns:dc="http://purl.org/dc/elements/1.1/"
   xmlns:cc="http://creativecommons.org/ns#"
   xmlns:rdf="http://www.w3.org/1999/02/22-rdf-syntax-ns#"
   xmlns:svg="http://www.w3.org/2000/svg"
   xmlns="http://www.w3.org/2000/svg"
   xmlns:sodipodi="http://sodipodi.sourceforge.net/DTD/sodipodi-0.dtd"
   xmlns:inkscape="http://www.inkscape.org/namespaces/inkscape"
   width="171.16525mm"
   height="133.16542mm"
   viewBox="0 0 171.16525 133.16542"
   version="1.1"
   id="svg3481"
   inkscape:version="0.92.4 (5da689c313, 2019-01-14)"
   sodipodi:docname="sip.svg"
   inkscape:export-filename="D:\Peti\Fresh\emojis\sip.png"
   inkscape:export-xdpi="254"
   inkscape:export-ydpi="254">
  <defs
     id="defs3475" />
  <sodipodi:namedview
     id="base"
     pagecolor="#ffffff"
     bordercolor="#666666"
     borderopacity="1.0"
     inkscape:pageopacity="0.0"
     inkscape:pageshadow="2"
     inkscape:zoom="1.979899"
     inkscape:cx="324.45804"
     inkscape:cy="238.59729"
     inkscape:document-units="mm"
     inkscape:current-layer="layer12"
     showgrid="false"
     inkscape:window-width="1920"
     inkscape:window-height="1001"
     inkscape:window-x="-9"
     inkscape:window-y="-9"
     inkscape:window-maximized="1"
     fit-margin-top="0"
     fit-margin-left="0"
     fit-margin-right="0"
     fit-margin-bottom="0" />
  <metadata
     id="metadata3478">
    <rdf:RDF>
      <cc:Work
         rdf:about="">
        <dc:format>image/svg+xml</dc:format>
        <dc:type
           rdf:resource="http://purl.org/dc/dcmitype/StillImage" />
        <dc:title />
      </cc:Work>
    </rdf:RDF>
  </metadata>
  <g
     inkscape:groupmode="layer"
     id="layer12"
     inkscape:label="box"
     style="opacity:1"
     transform="translate(-15.188456,-88.431851)">
    <path
       style="fill:#2a72fc;fill-opacity:1;stroke:#ffffff;stroke-width:2;stroke-linecap:butt;stroke-linejoin:round;stroke-miterlimit:4;stroke-dasharray:none;stroke-opacity:1"
       d="m 140.11408,187.2898 33.34615,-1.43756 -1.73726,34.74503 -33.59048,-0.17555 z"
       id="path4074"
       inkscape:connector-curvature="0"
       sodipodi:nodetypes="ccccc" />
    <path
       style="fill:#034cd8;fill-opacity:1;stroke:#ffffff;stroke-width:2;stroke-linecap:butt;stroke-linejoin:round;stroke-miterlimit:4;stroke-dasharray:none;stroke-opacity:1"
       d="m 173.46023,185.85224 11.89349,-7.34992 -1.06908,31.93871 -12.56167,10.15624 z"
       id="path4076"
       inkscape:connector-curvature="0" />
    <path
       style="fill:#2a72fc;fill-opacity:1;stroke:#ffffff;stroke-width:2;stroke-linecap:butt;stroke-linejoin:round;stroke-miterlimit:4;stroke-dasharray:none;stroke-opacity:1"
       d="m 185.35372,178.50232 -34.34413,3.07361 -10.89551,5.71387 33.34615,-1.43756 11.89349,-7.34992"
       id="path4078"
       inkscape:connector-curvature="0"
       sodipodi:nodetypes="ccccc" />
    <path
       style="fill:none;stroke:#ffffff;stroke-width:2;stroke-linecap:butt;stroke-linejoin:round;stroke-miterlimit:4;stroke-dasharray:none;stroke-opacity:1"
       d="m 173.46023,185.85224 6.1472,4.94448 5.74629,-12.2944 z"
       id="path4080"
       inkscape:connector-curvature="0" />
    <path
       style="fill:none;stroke:#ffffff;stroke-width:1;stroke-linecap:butt;stroke-linejoin:miter;stroke-miterlimit:4;stroke-dasharray:none;stroke-opacity:1"
       d="m 179.60743,190.79672 -0.33409,23.61995"
       id="path4082"
       inkscape:connector-curvature="0"
       sodipodi:nodetypes="cc" />
    <path
       style="fill:#2cfcce;fill-opacity:1;stroke:none;stroke-width:0.26458332px;stroke-linecap:butt;stroke-linejoin:miter;stroke-opacity:1"
       d="m 150.57626,197.68675 c 0,0 6.52009,-2.12611 11.71727,0.51972 0,0 4.01599,-3.59077 3.96875,-5.62239 0,0 2.17336,3.49628 0.99218,9.5439 0,0 2.26786,4.77195 -1.18117,6.75632 0,0 -11.00856,5.85863 -21.21391,0.94494 0,0 -1.93713,-1.18118 -1.65365,-3.26004 0,0 0.33073,-2.97657 1.22842,-4.58297 0,0 -0.18899,-6.2366 3.87426,-9.78013 0,0 0.37796,4.06323 2.26785,5.48065 z"
       id="path4084"
       inkscape:connector-curvature="0"
       sodipodi:nodetypes="cccccccccc" />
    <path
       style="fill:none;stroke:#000000;stroke-width:1;stroke-linecap:butt;stroke-linejoin:miter;stroke-miterlimit:4;stroke-dasharray:none;stroke-opacity:1"
       d="m 148.36799,205.42678 c 0,0 -0.60135,1.5368 0,3.107 l 1.5034,-1.67043 c 0,0 3.70836,1.33635 9.02034,-0.26727 l 1.40317,2.03793 c 0,0 1.73725,-1.46998 1.9377,-2.57247"
       id="path4088"
       inkscape:connector-curvature="0" />
    <ellipse
       style="opacity:1;fill:none;fill-opacity:1;stroke:#000000;stroke-width:1;stroke-linecap:butt;stroke-linejoin:round;stroke-miterlimit:4;stroke-dasharray:none;stroke-opacity:1;paint-order:fill markers stroke"
       id="path4092"
       cx="151.12422"
       cy="202.21954"
       rx="0.88533032"
       ry="0.96885204" />
    <ellipse
       style="opacity:1;fill:none;fill-opacity:1;stroke:#000000;stroke-width:1;stroke-linecap:butt;stroke-linejoin:round;stroke-miterlimit:4;stroke-dasharray:none;stroke-opacity:1;paint-order:fill markers stroke"
       id="path4092-8"
       cx="159.35947"
       cy="201.98569"
       rx="0.88533032"
       ry="0.96885204" />
  </g>
  <g
     inkscape:groupmode="layer"
     id="layer11"
     inkscape:label="straw"
     transform="translate(-15.188456,-88.431851)">
    <path
       style="fill:#b367cd;fill-opacity:1;stroke:#ffffff;stroke-width:2;stroke-linecap:butt;stroke-linejoin:miter;stroke-miterlimit:4;stroke-dasharray:none;stroke-opacity:1"
       d="m 134.74251,153.92859 31.3655,-7.93587 c 0,0 7.08264,-1.33635 4.81085,8.41898 l -4.94448,28.59785 -7.21628,0.26727 4.94449,-27.6624 c 0,0 0.22476,-1.90528 -2.13816,-1.40317 l -23.46796,5.94282 z"
       id="path4063"
       inkscape:connector-curvature="0"
       sodipodi:nodetypes="ccccccccc" />
    <path
       style="fill:none;stroke:#ffffff;stroke-width:1;stroke-linecap:round;stroke-linejoin:miter;stroke-miterlimit:4;stroke-dasharray:none;stroke-opacity:1"
       d="m 161.9628,154.07775 c 0,0 2.69308,-1.37016 3.63802,-5.6224"
       id="path4067"
       inkscape:connector-curvature="0" />
    <path
       style="fill:none;stroke:#ffffff;stroke-width:1;stroke-linecap:round;stroke-linejoin:miter;stroke-miterlimit:4;stroke-dasharray:none;stroke-opacity:1"
       d="m 163.23847,154.31399 5.10267,-3.26005"
       id="path4069"
       inkscape:connector-curvature="0" />
    <path
       style="fill:none;stroke:#ffffff;stroke-width:1;stroke-linecap:round;stroke-linejoin:miter;stroke-miterlimit:4;stroke-dasharray:none;stroke-opacity:1"
       d="m 163.64006,154.97544 c 0,0 4.79558,-0.25985 5.92951,-1.15755"
       id="path4071"
       inkscape:connector-curvature="0" />
  </g>
  <g
     inkscape:groupmode="layer"
     id="layer8"
     inkscape:label="face"
     style="opacity:1"
     transform="translate(-15.188456,-88.431851)">
    <path
       style="opacity:1;fill:#000000;fill-opacity:1;stroke:#ffffff;stroke-width:4;stroke-linecap:butt;stroke-linejoin:miter;stroke-miterlimit:4;stroke-dasharray:none;stroke-opacity:1"
       d="m 42.36222,142.65185 c 0,0 -22.851545,-21.38157 -25.123336,-53.587545 -0.400904,1.202715 21.247928,29.132385 37.685004,29.934185 9.621703,0.26727 15.635267,-5.74629 24.856066,-4.40994 0,0 2.539061,-6.81538 -3.340869,-12.02713 0,0 16.169806,1.87089 28.998745,21.11429 0,0 7.08264,1.87089 12.82894,-4.40995 0,0 0.4009,5.61266 -4.54359,7.75082 l 1.33635,2.53906 c 0,0 14.43256,-2.67269 14.56619,-14.69982 0,0 17.50616,3.74177 22.45064,27.52876 l -6.01356,13.49711 -1.87089,-4.40995 -15.50163,4.81085 16.8609,2.42164 6.25791,-5.76251 c 0,0 -6.5481,22.31701 -6.94901,33.54233 0,0 -48.37578,-5.47903 -77.240889,6.94901 0,0 -13.497112,-5.21176 -14.699825,-6.28084 0,0 -0.534539,-7.61718 -0.267269,-12.56166 0,0 -4.554627,5.33131 -5.499567,7.31569 0,0 -8.126488,-5.00818 -11.90625,-14.2686 0,0 6.709077,-7.27604 10.488839,-8.88244 0,0 -7.087053,1.22842 -13.040178,5.48065 0,0 -10.677828,-12.37872 -12.567709,-26.08035 0,0 8.656732,7.95325 22.234988,4.49634 z"
       id="path4039"
       inkscape:connector-curvature="0"
       sodipodi:nodetypes="cccccccccccccccccccccccccc" />
    <path
       style="fill:none;stroke:#000000;stroke-width:0.26458332px;stroke-linecap:butt;stroke-linejoin:miter;stroke-opacity:1"
       d="M 105.43783,123.67571 Z"
       id="path4041"
       inkscape:connector-curvature="0" />
  </g>
  <g
     inkscape:groupmode="layer"
     id="layer10"
     inkscape:label="mouth"
     transform="translate(-15.188456,-88.431851)">
    <path
       style="fill:none;stroke:#ffffff;stroke-width:4;stroke-linecap:butt;stroke-linejoin:miter;stroke-miterlimit:4;stroke-dasharray:none;stroke-opacity:1"
       d="m 128.69028,156.28259 -6.226,1.71666 -1.5119,5.19718 c 0,0 -3.68527,-3.02381 -7.55952,-2.92932 l -25.891372,4.8192 c 0,0 -3.023809,0.0945 -5.480655,-3.49628"
       id="path4047"
       inkscape:connector-curvature="0" />
  </g>
  <g
     inkscape:groupmode="layer"
     id="layer9"
     inkscape:label="eye"
     transform="translate(-15.188456,-88.431851)">
    <path
       style="fill:#ffffff;fill-opacity:1;stroke:#ffffff;stroke-width:2;stroke-linecap:butt;stroke-linejoin:round;stroke-miterlimit:4;stroke-dasharray:none;stroke-opacity:1;paint-order:fill markers stroke"
       d="m 95.722468,137.58854 c 0,0 -7.370535,-18.23735 -23.340028,-1.32292 0,0 6.425596,-3.77976 7.46503,-3.49628 0,0 -4.063244,5.95313 -4.819196,9.16593 0,0 14.268596,-6.14212 20.694194,-4.34673 z"
       id="path4044"
       inkscape:connector-curvature="0" />
  </g>
</svg>
