<?xml version="1.0" encoding="UTF-8" standalone="no"?>
<!-- Created with Inkscape (http://www.inkscape.org/) -->

<svg
   xmlns:dc="http://purl.org/dc/elements/1.1/"
   xmlns:cc="http://creativecommons.org/ns#"
   xmlns:rdf="http://www.w3.org/1999/02/22-rdf-syntax-ns#"
   xmlns:svg="http://www.w3.org/2000/svg"
   xmlns="http://www.w3.org/2000/svg"
   xmlns:sodipodi="http://sodipodi.sourceforge.net/DTD/sodipodi-0.dtd"
   xmlns:inkscape="http://www.inkscape.org/namespaces/inkscape"
   width="158.11459mm"
   height="137.6454mm"
   viewBox="0 0 158.11459 137.6454"
   version="1.1"
   id="svg2187"
   inkscape:version="0.92.4 (5da689c313, 2019-01-14)"
   sodipodi:docname="sleep.svg"
   inkscape:export-filename="D:\Peti\Fresh\emojis\sleep.png"
   inkscape:export-xdpi="254"
   inkscape:export-ydpi="254">
  <defs
     id="defs2181" />
  <sodipodi:namedview
     id="base"
     pagecolor="#ffffff"
     bordercolor="#666666"
     borderopacity="1.0"
     inkscape:pageopacity="0.0"
     inkscape:pageshadow="2"
     inkscape:zoom="0.7"
     inkscape:cx="-223.3745"
     inkscape:cy="153.31874"
     inkscape:document-units="mm"
     inkscape:current-layer="layer21"
     showgrid="false"
     inkscape:window-width="1920"
     inkscape:window-height="1001"
     inkscape:window-x="-9"
     inkscape:window-y="-9"
     inkscape:window-maximized="1"
     fit-margin-top="0"
     fit-margin-left="0"
     fit-margin-right="0"
     fit-margin-bottom="0" />
  <metadata
     id="metadata2184">
    <rdf:RDF>
      <cc:Work
         rdf:about="">
        <dc:format>image/svg+xml</dc:format>
        <dc:type
           rdf:resource="http://purl.org/dc/dcmitype/StillImage" />
        <dc:title />
      </cc:Work>
    </rdf:RDF>
  </metadata>
  <g
     inkscape:groupmode="layer"
     id="layer21"
     inkscape:label="face"
     transform="translate(-21.414117,-81.954847)">
    <path
       style="fill:#000000;fill-opacity:1;stroke:#ffffff;stroke-width:4;stroke-linecap:butt;stroke-linejoin:miter;stroke-miterlimit:4;stroke-dasharray:none;stroke-opacity:1"
       d="m 59.601105,156.14896 c 0,0 -11.626226,7.48354 -24.722431,-4.54359 0,0 2.806329,20.84703 12.828937,28.19694 0,0 10.022607,-5.61266 13.497111,-5.07812 0,0 -8.285356,5.87993 -10.022607,9.88897 0,0 5.61266,11.49259 13.096206,14.9671 0,0 3.34087,-4.81085 8.68626,-5.61266 l -3.474504,11.75986 c 0,0 11.626225,8.55262 13.898016,11.62622 0,0 52.117557,-12.16076 82.987187,-10.15624 0,0 4.81085,-10.82442 4.40995,-33.40869 -0.26727,-0.13364 -4.54358,7.34991 -4.54358,7.34991 0,0 -23.11882,-6.81537 -34.61141,-6.28083 0,0 6.68174,-2.13816 8.68626,-2.6727 0,0 3.20724,0 5.34539,2.40543 0,0 4.00905,-6.1472 9.35444,-7.34992 0,0 11.49259,-1.87088 14.69982,-3.8754 l 0.80181,8.01808 c 0,0 5.61266,-8.68626 6.94901,-12.2944 0,0 -4.54359,-26.59331 -24.9897,-32.74051 0,0 -0.53454,14.69982 -15.368,16.43707 l -2.27179,-2.27179 c 0,0 5.61266,-3.20723 5.74629,-8.15172 0,0 -6.81537,5.7463 -13.89801,4.67722 0,0 -11.62623,-21.9161 -32.205982,-24.05426 0,0 7.750812,5.74629 6.280832,14.96709 0,0 -7.884449,-3.0736 -15.635265,1.33635 0,0 -5.345391,0.66818 -10.557147,-4.27631 0,0 -15.902537,-12.82894 -31.537804,-11.75986 0,0 -17.506154,0.66817 -19.109771,17.23888 0,0 10.557146,-10.0226 18.708867,-3.4745 0,0 16.036172,16.57071 16.971615,29.13238 z"
       id="path2745"
       inkscape:connector-curvature="0" />
  </g>
  <g
     inkscape:groupmode="layer"
     id="layer24"
     inkscape:label="ew"
     transform="translate(-21.414117,-81.954847)">
    <path
       style="fill:#8aabff;fill-opacity:1;stroke:#8aabff;stroke-width:4;stroke-linecap:butt;stroke-linejoin:miter;stroke-miterlimit:4;stroke-dasharray:none;stroke-opacity:1"
       d="m 127.18899,176.89806 c 0,0 -2.17337,6.89807 0.18898,10.39435 0,0 4.63021,6.80357 2.07888,15.59152 0,0 -1.6064,3.30729 -1.51191,6.42559 l -5.19717,0.75596 c 0,0 -0.56697,-7.18155 1.98437,-10.96131 0,0 1.6064,-6.14212 -1.41741,-9.82738 0,0 -2.83482,-3.77977 -0.94494,-11.43378 z"
       id="path2754"
       inkscape:connector-curvature="0" />
  </g>
  <g
     inkscape:groupmode="layer"
     id="layer22"
     inkscape:label="mouth"
     transform="translate(-21.414117,-81.954847)">
    <path
       style="fill:none;stroke:#ffffff;stroke-width:4;stroke-linecap:butt;stroke-linejoin:miter;stroke-miterlimit:4;stroke-dasharray:none;stroke-opacity:1"
       d="m 132.46546,174.55715 c 0,0 -8.67826,3.75832 -15.00936,3.66383 0,0 -14.55208,0.47247 -22.017112,5.19717"
       id="path2748"
       inkscape:connector-curvature="0"
       sodipodi:nodetypes="ccc" />
  </g>
  <g
     inkscape:groupmode="layer"
     id="layer23"
     inkscape:label="eye"
     transform="translate(-21.414117,-81.954847)">
    <path
       style="fill:none;stroke:#fdfdfd;stroke-width:4;stroke-linecap:butt;stroke-linejoin:miter;stroke-miterlimit:4;stroke-dasharray:none;stroke-opacity:1"
       d="m 90.470735,151.87264 c 0,0 20.045215,8.28536 26.192415,-6.5481"
       id="path2751"
       inkscape:connector-curvature="0" />
  </g>
  <g
     inkscape:groupmode="layer"
     id="layer25"
     inkscape:label="zzz"
     transform="translate(-21.414117,-81.954847)">
    <path
       style="fill:none;stroke:#c3c3c3;stroke-width:4;stroke-linecap:butt;stroke-linejoin:miter;stroke-miterlimit:4;stroke-dasharray:none;stroke-opacity:1"
       d="m 72.830946,105.63502 c 0,0 6.815373,0.13363 9.621702,-2.13816 l -7.082641,11.09169 c 0,0 6.548103,0.93544 8.819894,-1.06908"
       id="path2770"
       inkscape:connector-curvature="0" />
    <path
       style="fill:none;stroke:#c3c3c3;stroke-width:4;stroke-linecap:butt;stroke-linejoin:miter;stroke-miterlimit:4;stroke-dasharray:none;stroke-opacity:1"
       d="m 50.938447,86.654945 c 0,0 8.418991,1.870888 15.234362,-0.801806 0,0 -9.087162,16.303441 -14.432552,17.238891 0,0 8.953529,0.13363 18.174327,-5.612666"
       id="path2772"
       inkscape:connector-curvature="0" />
  </g>
</svg>
