<?xml version="1.0" encoding="UTF-8" standalone="no"?>
<!-- Created with Inkscape (http://www.inkscape.org/) -->

<svg
   xmlns:dc="http://purl.org/dc/elements/1.1/"
   xmlns:cc="http://creativecommons.org/ns#"
   xmlns:rdf="http://www.w3.org/1999/02/22-rdf-syntax-ns#"
   xmlns:svg="http://www.w3.org/2000/svg"
   xmlns="http://www.w3.org/2000/svg"
   xmlns:sodipodi="http://sodipodi.sourceforge.net/DTD/sodipodi-0.dtd"
   xmlns:inkscape="http://www.inkscape.org/namespaces/inkscape"
   width="148.04433mm"
   height="135.00432mm"
   viewBox="0 0 148.04433 135.00432"
   version="1.1"
   id="svg1573"
   inkscape:version="0.92.4 (5da689c313, 2019-01-14)"
   sodipodi:docname="think.svg"
   inkscape:export-filename="D:\Peti\Fresh\emojis\think.png"
   inkscape:export-xdpi="254"
   inkscape:export-ydpi="254">
  <defs
     id="defs1567" />
  <sodipodi:namedview
     id="base"
     pagecolor="#ffffff"
     bordercolor="#666666"
     borderopacity="1.0"
     inkscape:pageopacity="0.0"
     inkscape:pageshadow="2"
     inkscape:zoom="0.35"
     inkscape:cx="-1662.0486"
     inkscape:cy="855.2523"
     inkscape:document-units="mm"
     inkscape:current-layer="layer16"
     showgrid="false"
     inkscape:window-width="1920"
     inkscape:window-height="1001"
     inkscape:window-x="-9"
     inkscape:window-y="-9"
     inkscape:window-maximized="1"
     fit-margin-top="0"
     fit-margin-left="0"
     fit-margin-right="0"
     fit-margin-bottom="0" />
  <metadata
     id="metadata1570">
    <rdf:RDF>
      <cc:Work
         rdf:about="">
        <dc:format>image/svg+xml</dc:format>
        <dc:type
           rdf:resource="http://purl.org/dc/dcmitype/StillImage" />
        <dc:title />
      </cc:Work>
    </rdf:RDF>
  </metadata>
  <g
     inkscape:groupmode="layer"
     id="layer16"
     inkscape:label="face"
     transform="translate(-21.120915,-88.492096)">
    <path
       style="fill:#000000;fill-opacity:1;stroke:#ffffff;stroke-width:4;stroke-linecap:butt;stroke-linejoin:miter;stroke-miterlimit:4;stroke-dasharray:none;stroke-opacity:1"
       d="m 51.583018,146.52725 c 0,0 -15.100729,6.28084 -24.9897,-4.94448 0,0 5.211756,22.45064 12.160764,27.39513 0,0 9.087163,-5.61266 13.096206,-5.47903 l -9.888972,10.02261 c 0,0 5.34539,10.55714 11.22532,12.6953 0,0 5.345391,-5.61266 7.349912,-5.87993 0,0 -3.0736,8.41899 -2.53906,11.75986 l 14.967093,13.76438 c 0,0 46.504899,-21.78247 83.788999,-21.64883 0,0 6.5481,-8.01809 2.40542,-24.32153 l 4.50469,-12.19133 c 0,0 -2.74033,-25.13541 -24.19048,-30.52157 0,0 1.51191,13.22916 -14.64657,15.7805 l -1.6064,-2.55134 c 0,0 5.10268,-3.59077 4.63021,-7.74851 -0.66146,0.56697 -6.14212,5.29167 -12.7567,4.53572 0,0 -11.62277,-19.84375 -31.183036,-22.96206 0,0 8.315477,6.14212 4.819197,13.79613 0,0 -5.291667,-1.88988 -17.197917,2.45685 0,0 -32.777912,2.65605 -48.41318,-31.153543 0,0 2.00452,43.698553 28.464204,57.195673 z"
       id="path2142"
       inkscape:connector-curvature="0" />
  </g>
  <g
     inkscape:groupmode="layer"
     id="layer17"
     inkscape:label="eye"
     transform="translate(-21.120915,-88.492096)">
    <path
       style="fill:#ffffff;fill-opacity:1;stroke:#ffffff;stroke-width:2;stroke-linecap:butt;stroke-linejoin:miter;stroke-miterlimit:4;stroke-dasharray:none;stroke-opacity:1"
       d="m 77.296131,143.82515 c 0,0 9.543899,-12.37872 29.009669,-5.76414 0,0 -3.77976,5.85863 -11.811752,7.27604 0,0 -13.985119,-2.83482 -17.197917,-1.5119 z"
       id="path2145"
       inkscape:connector-curvature="0" />
    <path
       style="fill:none;stroke:#ffffff;stroke-width:4;stroke-linecap:butt;stroke-linejoin:miter;stroke-miterlimit:4;stroke-dasharray:none;stroke-opacity:1"
       d="m 76.706353,132.22833 c 0,0 15.100729,-15.63526 25.123337,-6.5481"
       id="path2152"
       inkscape:connector-curvature="0"
       sodipodi:nodetypes="cc" />
  </g>
  <g
     inkscape:groupmode="layer"
     id="layer18"
     inkscape:label="mouth"
     transform="translate(-21.120915,-88.492096)">
    <path
       style="fill:none;stroke:#ffffff;stroke-width:4;stroke-linecap:butt;stroke-linejoin:miter;stroke-miterlimit:4;stroke-dasharray:none;stroke-opacity:1"
       d="m 159.159,159.89073 -1.00226,2.53906 -2.73951,-9.42125 -15.63527,4.87767 -8.68626,7.28309 c 0,0 -1.06908,-3.27405 -6.08038,-3.34087 l -27.395125,3.60814 c 0,0 -8.886712,0.735 -11.158503,3.54133"
       id="path2148"
       inkscape:connector-curvature="0" />
  </g>
  <g
     inkscape:groupmode="layer"
     id="layer19"
     inkscape:label="hand"
     transform="translate(-21.120915,-88.492096)">
    <path
       style="opacity:1;fill:#ffb703;fill-opacity:1;stroke:#ffffff;stroke-width:2.42546797;stroke-linecap:round;stroke-linejoin:round;stroke-miterlimit:4;stroke-dasharray:none;stroke-opacity:1"
       d="m 126.78204,222.19496 c -1.30377,-0.17046 -2.93703,-0.56577 -4.27035,-1.03357 -1.44225,-0.50605 -3.49443,-1.49349 -3.88317,-1.86845 -0.11656,-0.1124 -0.27158,-0.2045 -0.34439,-0.2045 -0.30361,0 -2.58984,-1.89517 -3.87657,-3.21352 -3.45561,-3.54047 -5.29055,-7.80479 -5.92065,-13.75933 -0.31696,-2.99529 0.39104,-6.71273 1.71499,-9.00474 1.33038,-2.30313 3.97634,-5.30314 7.59691,-8.61338 1.50782,-1.37862 2.31056,-2.54188 2.92193,-4.23419 0.88859,-2.45978 0.81844,-5.99005 -0.18175,-9.14478 -0.81611,-2.57408 -0.10061,-4.49904 1.88699,-5.07684 0.93175,-0.27087 1.6093,-0.22324 2.8587,0.20093 0.81403,0.27638 1.97867,1.20483 1.97867,1.20483 0,0 1.3222,0.80494 2.15036,1.88658 0,0 0.85328,0.98844 1.20426,1.85485 0.45016,0.953 0.60992,1.42365 0.86835,2.60044 0.62613,4.28545 0.84648,7.00323 -0.13308,9.92332 -0.32337,0.96391 -1.48993,2.89257 -2.08637,3.44934 -0.43873,0.40954 -0.88048,1.1313 -0.88048,1.43855 0,0.094 0.24098,0.2859 0.53551,0.42636 0.58803,0.28042 0.15604,0.35563 6.60382,-1.14957 3.7809,-0.88263 9.43388,-2.19 10.02717,-2.319 0.30883,-0.0671 1.68055,-0.3842 3.04825,-0.70455 5.29022,-1.23914 7.48127,-1.74854 8.02173,-1.865 0.30884,-0.0667 1.98501,-0.45431 3.72481,-0.8617 1.73983,-0.4074 3.33307,-0.74072 3.54055,-0.74072 1.44684,0 3.05421,1.07061 3.63527,2.42134 0.82583,1.91968 0.55372,3.60296 -0.7848,4.85498 -0.92049,0.86102 -1.38152,1.07062 -3.38938,1.54089 -0.83179,0.1948 -2.84795,0.6766 -4.48037,1.07066 -1.63242,0.39404 -3.87048,0.93267 -4.97347,1.19695 -1.10299,0.26429 -2.90788,0.69704 -4.01086,0.96169 -2.85046,0.68391 -2.77131,0.63224 -1.8935,1.23617 1.55487,1.06979 2.21443,2.2367 2.21424,3.91753 -1.1e-4,0.95325 -0.0846,1.34756 -0.45713,2.13215 -0.46344,0.97621 -1.60534,2.19551 -2.24678,2.39912 -0.45887,0.14562 -0.43552,0.35078 0.0539,0.47363 0.57376,0.14401 1.49149,1.00255 1.8863,1.76466 0.4007,0.77344 0.46256,2.37438 0.13078,3.38432 -0.39899,1.21457 -2.22355,2.96804 -3.08837,2.96804 -0.41121,0 -0.35877,0.30245 0.0814,0.46984 0.64657,0.24581 1.36249,1.21681 1.4813,2.00907 0.219,1.46034 -0.26563,2.68988 -1.49622,3.7961 -1.12824,1.0142 -2.21215,1.54771 -3.91399,1.92654 -0.82263,0.18311 -1.78447,0.39824 -2.13742,0.47805 -0.35296,0.0798 -1.00273,0.21502 -1.44392,0.30044 -0.44118,0.0853 -1.30754,0.26838 -1.92521,0.40658 -0.61767,0.1382 -1.44792,0.31943 -1.845,0.40273 -0.39707,0.0833 -1.22732,0.26492 -1.84501,0.4036 -1.10805,0.24878 -5.51449,0.44306 -6.65802,0.29356 z"
       id="path2179"
       inkscape:connector-curvature="0"
       sodipodi:nodetypes="cccsccccccccccccccscsccccscccccccccccccsccccccscccc" />
  </g>
</svg>
